<svg xmlns="http://www.w3.org/2000/svg" width="51.445" height="30" viewBox="0 0 51.445 30"><g id="ic-fast-reliable" transform="translate(-1014 -4425.064)"><g id="Group_2140" data-name="Group 2140" transform="translate(579.665 3889.498)"><g id="Group_2140-2" data-name="Group 2140" transform="translate(448.97 550.469)"><path id="Path_3278" data-name="Path 3278" d="M472.339,555.571l-3.237.828a10.1,10.1,0,0,0-16.536,7.283,1.43,1.43,0,1,1-2.856-.133,12.958,12.958,0,0,1,22.629-7.978Z" transform="translate(-449.708 -551.22)" fill="#48b703"></path><path id="Path_3279" data-name="Path 3279" d="M476.755,564.09a1.428,1.428,0,0,1-1.361,1.495h-.067a1.425,1.425,0,0,1-1.428-1.361c0-.067-.009-.124-.009-.19l2.685-1.533A12.5,12.5,0,0,1,476.755,564.09Z" transform="translate(-450.869 -551.761)" fill="#48b703"></path></g><g id="Group_2141" data-name="Group 2141" transform="translate(461.168 552.727)"><path id="Path_3280" data-name="Path 3280" d="M486.754,553.6a.3.3,0,0,1,.226.554L475.7,560.616l-2.57,1.466-1.761,1.009a4.5,4.5,0,1,1-2.009-5.017l1.552-.4,3.008-.771Z" transform="translate(-462.521 -553.593)" fill="#48b703"></path></g><g id="Group_2142" data-name="Group 2142" transform="translate(434.335 535.566)"><path id="Path_3281" data-name="Path 3281" d="M435.76,564.263a1.4,1.4,0,0,1-1.42-1.317c0-.076,0-.147,0-.223a27.157,27.157,0,0,1,50.135-14.476,1.428,1.428,0,1,1-2.415,1.524,24.3,24.3,0,0,0-44.864,12.952,1.455,1.455,0,0,1-1.343,1.537C435.818,564.263,435.79,564.263,435.76,564.263Z" transform="translate(-434.335 -535.566)" fill="#48b703"></path></g></g></g></svg>