<svg xmlns="http://www.w3.org/2000/svg" width="600" height="600" viewBox="0 0 600 600" fill="none"><rect width="600" height="600" fill="white"></rect><path d="M199 193.5C199 240.125 159.421 278 110.5 278C61.5792 278 22 240.125 22 193.5C22 146.875 61.5792 109 110.5 109C159.421 109 199 146.875 199 193.5Z" stroke="#0FA9FF" stroke-opacity="0.47" stroke-width="2"></path><ellipse cx="121.5" cy="202.5" rx="89.5" ry="85.5" fill="#0648CC" fill-opacity="0.47"></ellipse><path d="M579 406.5C579 453.115 538.984 491 489.5 491C440.016 491 400 453.115 400 406.5C400 359.885 440.016 322 489.5 322C538.984 322 579 359.885 579 406.5Z" stroke="#0648CC" stroke-opacity="0.47" stroke-width="2"></path><ellipse cx="475.5" cy="398.5" rx="90.5" ry="85.5" fill="#0FA9FF" fill-opacity="0.47"></ellipse><rect x="99" y="191" width="394" height="209.565" rx="5" fill="white" stroke="#7B7A7A" stroke-width="10"></rect><path d="M157.82 216.838C159.318 216.838 160.532 215.792 160.532 214.5C160.532 213.209 159.318 212.162 157.82 212.162C156.322 212.162 155.108 213.209 155.108 214.5C155.108 215.792 156.322 216.838 157.82 216.838Z" fill="#0648CC"></path><path fill-rule="evenodd" clip-rule="evenodd" d="M158.276 217.716H157.642C157.227 217.712 156.826 217.852 156.53 218.103C156.233 218.354 156.064 218.696 156.06 219.055V227.954C156.064 228.312 156.233 228.655 156.53 228.906C156.826 229.157 157.227 229.296 157.642 229.293H158.276C158.481 229.294 158.686 229.261 158.877 229.195C159.068 229.128 159.242 229.03 159.389 228.906C159.536 228.782 159.653 228.633 159.733 228.47C159.814 228.307 159.856 228.131 159.858 227.954V219.055C159.854 218.696 159.685 218.354 159.388 218.103C159.092 217.852 158.691 217.712 158.276 217.716Z" fill="#0648CC"></path><path fill-rule="evenodd" clip-rule="evenodd" d="M165.026 225.026L159.551 220.86C159.341 220.695 159.063 220.607 158.778 220.617C158.494 220.628 158.225 220.735 158.032 220.915L157.753 221.188C157.661 221.281 157.592 221.388 157.548 221.504C157.505 221.621 157.489 221.743 157.5 221.865C157.512 221.986 157.551 222.105 157.616 222.213C157.68 222.322 157.769 222.418 157.877 222.497L163.348 226.662C163.558 226.828 163.836 226.915 164.121 226.905C164.405 226.895 164.674 226.788 164.867 226.607L165.146 226.335C165.238 226.242 165.308 226.134 165.351 226.018C165.395 225.903 165.412 225.78 165.4 225.659C165.389 225.537 165.35 225.419 165.286 225.31C165.222 225.202 165.133 225.105 165.026 225.026Z" fill="#0648CC"></path><path fill-rule="evenodd" clip-rule="evenodd" d="M157.425 227.499C157.079 227.499 156.748 227.618 156.503 227.828C156.258 228.038 156.119 228.323 156.117 228.621L155.81 232.656C155.773 232.806 155.773 232.961 155.811 233.11C155.849 233.26 155.924 233.4 156.031 233.522C156.138 233.645 156.274 233.745 156.43 233.818C156.586 233.891 156.759 233.934 156.936 233.944C157.113 233.954 157.29 233.931 157.456 233.876C157.622 233.822 157.772 233.737 157.897 233.628C158.021 233.519 158.117 233.388 158.177 233.244C158.237 233.1 158.261 232.946 158.246 232.794L158.554 228.758C158.596 228.463 158.502 228.164 158.29 227.928C158.079 227.692 157.768 227.538 157.425 227.499Z" fill="#0648CC"></path><path fill-rule="evenodd" clip-rule="evenodd" d="M162.801 230.043L159.207 227.443C159.09 227.328 158.945 227.237 158.783 227.176C158.62 227.114 158.445 227.083 158.267 227.085C158.09 227.087 157.916 227.122 157.755 227.188C157.595 227.253 157.453 227.348 157.339 227.465C157.225 227.582 157.142 227.719 157.095 227.866C157.048 228.013 157.038 228.168 157.066 228.319C157.094 228.469 157.16 228.613 157.259 228.74C157.357 228.867 157.486 228.975 157.637 229.055L161.23 231.655C161.348 231.769 161.493 231.86 161.655 231.922C161.817 231.983 161.993 232.014 162.17 232.012C162.347 232.01 162.522 231.975 162.682 231.91C162.842 231.844 162.984 231.75 163.098 231.632C163.212 231.515 163.296 231.379 163.343 231.231C163.39 231.084 163.4 230.93 163.371 230.779C163.343 230.628 163.278 230.484 163.179 230.357C163.081 230.23 162.951 230.123 162.801 230.043Z" fill="#0648CC"></path><path fill-rule="evenodd" clip-rule="evenodd" d="M157.911 232.303C157.675 232.068 157.341 231.921 156.981 231.895C156.621 231.869 156.264 231.966 155.985 232.164L151.791 234.638C151.62 234.7 151.468 234.794 151.344 234.912C151.221 235.031 151.13 235.172 151.077 235.325C151.025 235.478 151.013 235.639 151.042 235.797C151.07 235.954 151.14 236.104 151.244 236.236C151.348 236.368 151.486 236.478 151.645 236.558C151.805 236.638 151.984 236.687 152.168 236.7C152.353 236.713 152.538 236.691 152.711 236.635C152.884 236.579 153.041 236.49 153.17 236.376L157.364 233.902C157.679 233.75 157.913 233.498 158.016 233.199C158.118 232.9 158.081 232.579 157.911 232.303Z" fill="#0648CC"></path><path fill-rule="evenodd" clip-rule="evenodd" d="M164.579 235.185L163.382 230.929C163.375 230.77 163.328 230.614 163.242 230.472C163.157 230.33 163.037 230.207 162.889 230.111C162.742 230.014 162.571 229.948 162.39 229.915C162.209 229.883 162.022 229.885 161.842 229.923C161.663 229.96 161.495 230.032 161.351 230.132C161.208 230.233 161.092 230.359 161.012 230.503C160.932 230.647 160.89 230.804 160.89 230.964C160.889 231.123 160.93 231.281 161.008 231.425L162.206 235.681C162.212 235.84 162.26 235.996 162.345 236.137C162.43 236.279 162.551 236.402 162.698 236.499C162.845 236.595 163.016 236.662 163.197 236.694C163.378 236.727 163.565 236.724 163.745 236.687C163.925 236.649 164.092 236.578 164.236 236.477C164.38 236.377 164.496 236.25 164.576 236.106C164.655 235.963 164.697 235.805 164.698 235.646C164.698 235.486 164.658 235.329 164.579 235.185Z" fill="#0648CC"></path><path opacity="0.3" d="M151.062 219.527L146.316 223.619L151.062 227.711V219.527Z" fill="black"></path><path opacity="0.3" d="M167.198 219.527L171.944 223.619L167.198 227.711V219.527Z" fill="black"></path><rect x="146.317" y="236.954" width="307.77" height="5.48913" rx="2.74457" fill="#8E8E8E"></rect><rect x="146.317" y="236.954" width="22.7136" height="5.48913" rx="2.74457" fill="#0648CC"></rect><rect x="166.76" y="236.954" width="35.2061" height="5.48913" fill="#F91414"></rect><path opacity="0.31" d="M167.958 236.954H166.76V241.796H167.958V236.954Z" fill="black"></path><path opacity="0.31" d="M202.028 236.954H200.83V241.796H202.028V236.954Z" fill="black"></path><path opacity="0.31" d="M236.098 236.954H234.9V241.796H236.098V236.954Z" fill="black"></path><path opacity="0.31" d="M270.17 236.954H268.972V241.796H270.17V236.954Z" fill="black"></path><path opacity="0.31" d="M304.239 236.954H303.041V241.796H304.239V236.954Z" fill="black"></path><path opacity="0.31" d="M338.309 236.954H337.111V241.796H338.309V236.954Z" fill="black"></path><path opacity="0.31" d="M372.38 236.954H371.182V241.796H372.38V236.954Z" fill="black"></path><path opacity="0.31" d="M406.451 236.954H405.253V241.796H406.451V236.954Z" fill="black"></path><path opacity="0.31" d="M440.521 236.954H439.323V241.796H440.521V236.954Z" fill="black"></path><path d="M167.337 250.904V245.928H168.964C169.504 245.928 169.91 246.039 170.181 246.263C170.455 246.486 170.591 246.816 170.591 247.254C170.591 247.486 170.525 247.693 170.393 247.873C170.261 248.05 170.081 248.188 169.853 248.286C170.122 248.361 170.334 248.505 170.489 248.717C170.646 248.926 170.725 249.177 170.725 249.469C170.725 249.915 170.58 250.266 170.291 250.521C170.001 250.777 169.592 250.904 169.063 250.904H167.337ZM167.994 248.577V250.368H169.077C169.382 250.368 169.623 250.289 169.798 250.132C169.976 249.972 170.065 249.754 170.065 249.476C170.065 248.876 169.739 248.577 169.087 248.577H167.994ZM167.994 248.05H168.985C169.272 248.05 169.501 247.979 169.672 247.835C169.845 247.691 169.932 247.497 169.932 247.25C169.932 246.977 169.852 246.779 169.692 246.656C169.533 246.53 169.29 246.468 168.964 246.468H167.994V248.05Z" fill="black"></path><path d="M205.068 249.325C205.007 249.852 204.812 250.258 204.484 250.545C204.158 250.83 203.724 250.973 203.182 250.973C202.594 250.973 202.122 250.762 201.767 250.34C201.413 249.919 201.237 249.355 201.237 248.648V248.17C201.237 247.707 201.319 247.301 201.483 246.95C201.649 246.599 201.884 246.33 202.187 246.143C202.49 245.954 202.841 245.859 203.24 245.859C203.768 245.859 204.192 246.007 204.511 246.304C204.83 246.598 205.016 247.006 205.068 247.527H204.409C204.352 247.131 204.228 246.844 204.036 246.666C203.847 246.488 203.582 246.399 203.24 246.399C202.82 246.399 202.491 246.554 202.252 246.864C202.015 247.174 201.896 247.615 201.896 248.187V248.669C201.896 249.209 202.009 249.639 202.235 249.958C202.46 250.277 202.776 250.436 203.182 250.436C203.546 250.436 203.825 250.354 204.019 250.19C204.215 250.024 204.345 249.735 204.409 249.325H205.068Z" fill="black"></path><path d="M235.478 250.904V245.928H236.883C237.316 245.928 237.699 246.023 238.031 246.215C238.364 246.406 238.62 246.679 238.8 247.032C238.983 247.385 239.075 247.791 239.077 248.249V248.566C239.077 249.036 238.986 249.447 238.804 249.8C238.624 250.153 238.365 250.425 238.028 250.614C237.693 250.803 237.302 250.9 236.855 250.904H235.478ZM236.134 246.468V250.368H236.825C237.331 250.368 237.724 250.21 238.004 249.896C238.286 249.582 238.428 249.134 238.428 248.553V248.262C238.428 247.697 238.294 247.258 238.028 246.946C237.764 246.632 237.388 246.472 236.9 246.468H236.134Z" fill="black"></path><path d="M272.362 248.604H270.206V250.368H272.711V250.904H269.549V245.928H272.677V246.468H270.206V248.067H272.362V248.604Z" fill="black"></path><path d="M306.363 248.707H304.275V250.904H303.619V245.928H306.702V246.468H304.275V248.17H306.363V248.707Z" fill="black"></path><path d="M341.363 250.251C341.195 250.493 340.959 250.674 340.656 250.795C340.355 250.913 340.004 250.973 339.603 250.973C339.197 250.973 338.837 250.878 338.523 250.689C338.208 250.498 337.965 250.226 337.792 249.875C337.621 249.525 337.533 249.118 337.528 248.655V248.221C337.528 247.472 337.703 246.89 338.051 246.478C338.402 246.066 338.894 245.859 339.528 245.859C340.047 245.859 340.465 245.993 340.782 246.259C341.099 246.524 341.293 246.9 341.363 247.387H340.707C340.584 246.729 340.192 246.399 339.531 246.399C339.091 246.399 338.758 246.554 338.53 246.864C338.304 247.172 338.19 247.618 338.188 248.204V248.611C338.188 249.169 338.316 249.613 338.571 249.944C338.826 250.272 339.171 250.436 339.606 250.436C339.853 250.436 340.068 250.409 340.252 250.354C340.437 250.299 340.59 250.207 340.71 250.077V248.959H339.559V248.426H341.363V250.251Z" fill="black"></path><path d="M375.584 250.904H374.924V248.604H372.416V250.904H371.759V245.928H372.416V248.067H374.924V245.928H375.584V250.904Z" fill="black"></path><path d="M406.535 250.904H405.878V245.928H406.535V250.904Z" fill="black"></path><path d="M441.986 245.928H442.646V249.452C442.646 249.928 442.502 250.3 442.215 250.569C441.93 250.838 441.549 250.973 441.073 250.973C440.579 250.973 440.194 250.846 439.918 250.593C439.642 250.34 439.504 249.986 439.504 249.53H440.161C440.161 249.815 440.238 250.037 440.393 250.197C440.55 250.356 440.777 250.436 441.073 250.436C441.344 250.436 441.563 250.351 441.729 250.18C441.898 250.009 441.984 249.77 441.986 249.462V245.928Z" fill="black"></path><rect x="147" y="283.587" width="25.25" height="14.2717" fill="#C4C4C4"></rect><rect x="147" y="309.935" width="25.25" height="13.1739" fill="#C4C4C4"></rect><rect x="147" y="335.185" width="25.25" height="13.1739" fill="#C4C4C4"></rect><rect x="182.131" y="277" width="159.185" height="79.0435" fill="#C4C4C4"></rect><line x1="183.229" y1="367.62" x2="341.315" y2="367.62" stroke="#C4C4C4"></line><line x1="193.609" y1="364.826" x2="193.609" y2="371.413" stroke="#C4C4C4"></line><circle cx="261.723" cy="315.973" r="20.3098" fill="#0648CC"></circle><path d="M268.859 315.424L258.979 321.128L258.979 309.719L268.859 315.424Z" fill="white"></path><path d="M415.327 328.838H414.3L414.104 329.424H413.481L414.54 326.58H415.083L416.147 329.424H415.524L415.327 328.838ZM414.458 328.363H415.169L414.812 327.299L414.458 328.363ZM416.999 328.422V329.424H416.413V326.58H417.522C417.736 326.58 417.924 326.619 418.085 326.697C418.248 326.775 418.373 326.887 418.46 327.031C418.547 327.174 418.591 327.338 418.591 327.521C418.591 327.8 418.495 328.02 418.304 328.182C418.114 328.342 417.85 328.422 417.513 328.422H416.999ZM416.999 327.947H417.522C417.677 327.947 417.795 327.911 417.876 327.838C417.958 327.765 417.999 327.661 417.999 327.525C417.999 327.386 417.958 327.273 417.876 327.188C417.794 327.102 417.681 327.057 417.536 327.055H416.999V327.947ZM419.581 328.422V329.424H418.995V326.58H420.104C420.318 326.58 420.506 326.619 420.667 326.697C420.83 326.775 420.955 326.887 421.042 327.031C421.129 327.174 421.173 327.338 421.173 327.521C421.173 327.8 421.077 328.02 420.886 328.182C420.696 328.342 420.432 328.422 420.095 328.422H419.581ZM419.581 327.947H420.104C420.259 327.947 420.377 327.911 420.458 327.838C420.54 327.765 420.581 327.661 420.581 327.525C420.581 327.386 420.54 327.273 420.458 327.188C420.376 327.102 420.263 327.057 420.118 327.055H419.581V327.947ZM422.163 328.953H423.407V329.424H421.577V326.58H422.163V328.953ZM424.179 327.861L424.771 326.58H425.411L424.478 328.393V329.424H423.882V328.393L422.948 326.58H423.591L424.179 327.861Z" fill="white"></path><rect x="365" y="314" width="89.2762" height="19.9447" rx="9" fill="#0648CC"></rect><path d="M401.254 324.975H399.456L399.114 326H398.024L399.876 321.023H400.827L402.689 326H401.599L401.254 324.975ZM399.733 324.144H400.977L400.352 322.281L399.733 324.144ZM404.18 324.247V326H403.154V321.023H405.096C405.469 321.023 405.798 321.092 406.08 321.229C406.365 321.365 406.584 321.56 406.736 321.813C406.889 322.064 406.965 322.35 406.965 322.671C406.965 323.159 406.798 323.544 406.463 323.826C406.13 324.106 405.669 324.247 405.079 324.247H404.18ZM404.18 323.416H405.096C405.367 323.416 405.573 323.352 405.714 323.225C405.858 323.097 405.93 322.915 405.93 322.678C405.93 322.434 405.858 322.237 405.714 322.086C405.571 321.936 405.373 321.859 405.12 321.854H404.18V323.416ZM408.698 324.247V326H407.673V321.023H409.614C409.988 321.023 410.316 321.092 410.599 321.229C410.883 321.365 411.102 321.56 411.255 321.813C411.408 322.064 411.484 322.35 411.484 322.671C411.484 323.159 411.316 323.544 410.981 323.826C410.649 324.106 410.187 324.247 409.597 324.247H408.698ZM408.698 323.416H409.614C409.885 323.416 410.092 323.352 410.233 323.225C410.376 323.097 410.448 322.915 410.448 322.678C410.448 322.434 410.376 322.237 410.233 322.086C410.089 321.936 409.891 321.859 409.638 321.854H408.698V323.416ZM413.217 325.176H415.394V326H412.191V321.023H413.217V325.176ZM416.744 323.266L417.78 321.023H418.901L417.267 324.195V326H416.225V324.195L414.591 321.023H415.715L416.744 323.266Z" fill="white"></path></svg>