<svg xmlns="http://www.w3.org/2000/svg" width="600" height="600" viewBox="0 0 600 600" fill="none"><rect width="600" height="600" fill="white"></rect><path d="M579 406.5C579 453.115 538.984 491 489.5 491C440.016 491 400 453.115 400 406.5C400 359.885 440.016 322 489.5 322C538.984 322 579 359.885 579 406.5Z" stroke="#48B703" stroke-opacity="0.47" stroke-width="2"></path><ellipse cx="475.5" cy="398.5" rx="90.5" ry="85.5" fill="#0C660C" fill-opacity="0.47"></ellipse><path d="M199 193.5C199 240.125 159.421 278 110.5 278C61.5792 278 22 240.125 22 193.5C22 146.875 61.5792 109 110.5 109C159.421 109 199 146.875 199 193.5Z" stroke="#0C660C" stroke-opacity="0.47" stroke-width="2"></path><ellipse cx="121.5" cy="202.5" rx="89.5" ry="85.5" fill="#48B703" fill-opacity="0.47"></ellipse><rect x="138.5" y="211.989" width="323" height="181.25" rx="13.5" fill="white" stroke="#666666"></rect><rect x="143" y="198" width="314" height="166.087" rx="5" fill="white" stroke="#7B7A7A" stroke-width="10"></rect><circle cx="299.559" cy="380.973" r="4.34239" fill="white" stroke="#666666"></circle><line x1="244.533" y1="422.935" x2="354.588" y2="422.935" stroke="#666666" stroke-width="5"></line><line x1="137.997" y1="364.287" x2="418.855" y2="364.108" stroke="#7B7A7A" stroke-opacity="0.99" stroke-width="10"></line><rect x="285.652" y="394.359" width="27.8152" height="28.6957" fill="#666666" stroke="#666666" stroke-width="3"></rect><rect x="62" y="321" width="200" height="130.556" rx="20" fill="#7B7A7A"></rect><rect x="77.2773" y="327.25" width="170.139" height="117.361" fill="white"></rect><circle cx="254.363" cy="386.278" r="3.47222" fill="white"></circle><path d="M183.832 357.47C181.294 357.47 179.229 355.404 179.229 352.866C179.229 350.328 181.294 348.263 183.832 348.263C186.37 348.263 188.436 350.328 188.436 352.866C188.436 355.404 186.37 357.47 183.832 357.47Z" fill="#0C660C"></path><path d="M168.484 366.677C165.946 366.677 163.881 364.611 163.881 362.073C163.881 359.535 165.946 357.47 168.484 357.47C171.022 357.47 173.088 359.535 173.088 362.073C173.088 364.611 171.022 366.677 168.484 366.677Z" fill="#0C660C"></path><path d="M199.178 360.539C196.64 360.539 194.574 358.474 194.574 355.936C194.574 353.397 196.64 351.332 199.178 351.332C201.716 351.332 203.781 353.397 203.781 355.936C203.781 358.474 201.716 360.539 199.178 360.539Z" fill="#0C660C"></path><path d="M168.754 400.436H148.537V409.643H171.654C170.161 406.767 169.182 403.655 168.754 400.436Z" fill="#0C660C"></path><path d="M167.104 357.555C167.518 357.393 167.96 357.288 168.425 357.288C168.89 357.288 169.331 357.393 169.746 357.555V348.57H167.104V357.555Z" fill="#7B7A7A"></path><path d="M197.76 351.213C198.175 351.077 198.616 350.99 199.081 350.99C199.546 350.99 199.988 351.077 200.403 351.213V348.57H197.76V351.213Z" fill="#7B7A7A"></path><path d="M167.104 366.012V375.526H169.746V366.012C169.331 366.184 168.89 366.295 168.425 366.295C167.96 366.295 167.518 366.184 167.104 366.012Z" fill="#7B7A7A"></path><path d="M197.76 359.669V375.525H200.403V359.669C199.988 359.843 199.546 359.955 199.081 359.955C198.616 359.955 198.175 359.843 197.76 359.669Z" fill="#7B7A7A"></path><path d="M205.313 339.056H162.347C159.809 339.056 157.743 341.121 157.743 343.659V351.332H119.381C116.843 351.332 114.777 353.397 114.777 355.935V429.591C114.777 432.129 116.843 434.195 119.381 434.195H202.244V414.665C205.257 409.495 206.847 403.614 206.847 397.626V387.877C208.629 387.242 209.916 385.554 209.916 383.556V343.659C209.916 341.121 207.851 339.056 205.313 339.056ZM166.95 394.298H123.984V378.953H157.743V383.556C157.743 386.094 159.809 388.16 162.347 388.16H166.95V394.298ZM119.381 354.401H157.743V369.746H117.846V355.935C117.846 355.088 118.534 354.401 119.381 354.401ZM117.846 429.591V372.815H157.743V375.884H120.915V397.367H166.976C167.11 403.653 169.252 409.793 173.088 414.777V431.126H119.381C118.534 431.126 117.846 430.438 117.846 429.591ZM176.157 431.126V415.781H199.175V431.126H176.157ZM203.778 397.626C203.778 402.917 202.397 408.11 199.807 412.712H175.401C171.936 408.131 170.019 402.498 170.019 396.748V382.022C171.712 382.022 173.088 383.398 173.088 385.091V394.298C173.088 396.836 175.154 398.901 177.692 398.901C180.23 398.901 182.295 396.836 182.295 394.298V371.28C182.295 370.433 182.983 369.746 183.83 369.746C184.677 369.746 185.364 370.433 185.364 371.28V395.832H188.433V380.487C188.433 379.64 189.121 378.953 189.968 378.953C190.815 378.953 191.502 379.64 191.502 380.487V395.832H194.571V383.556C194.571 382.709 195.259 382.022 196.106 382.022C196.953 382.022 197.64 382.709 197.64 383.556V395.832H200.709V386.625C200.709 385.778 201.397 385.091 202.244 385.091C203.091 385.091 203.778 385.778 203.778 386.625V397.626ZM176.157 388.16H179.226V394.298C179.226 395.145 178.539 395.832 177.692 395.832C176.845 395.832 176.157 395.145 176.157 394.298V388.16ZM206.847 383.556C206.847 383.986 206.669 384.371 206.384 384.65C205.643 383.102 204.073 382.022 202.244 382.022C201.638 382.022 201.062 382.146 200.531 382.359C200.002 380.403 198.228 378.953 196.106 378.953C195.5 378.953 194.924 379.077 194.393 379.29C193.864 377.334 192.09 375.884 189.968 375.884C189.428 375.884 188.915 375.994 188.433 376.166V371.28C188.433 369.282 187.146 367.594 185.364 366.959V357.186C184.882 357.359 184.37 357.47 183.83 357.47C183.29 357.47 182.777 357.359 182.295 357.187V366.961C180.514 367.596 179.226 369.284 179.226 371.282V385.092H176.157C176.157 381.707 173.404 378.954 170.019 378.954C168.327 378.954 166.95 380.331 166.95 382.023V385.092H162.347C161.5 385.092 160.812 384.405 160.812 383.558V343.659C160.812 342.812 161.5 342.125 162.347 342.125H205.313C206.16 342.125 206.847 342.812 206.847 343.659V383.556Z" fill="#7B7A7A"></path><path d="M131.958 403.539C125.985 403.539 121.123 408.282 121.123 414.11C121.123 419.938 125.985 424.681 131.958 424.681C137.932 424.681 142.794 419.938 142.794 414.11C142.794 408.282 137.932 403.539 131.958 403.539ZM139.541 412.6H133.506V406.712C136.534 407.314 138.924 409.646 139.541 412.6ZM130.41 406.712V413.485L125.508 418.267C124.697 417.073 124.219 415.646 124.219 414.11C124.219 410.465 126.883 407.414 130.41 406.712ZM131.958 421.661C130.384 421.661 128.921 421.194 127.697 420.403L132.599 415.62H139.541C138.822 419.062 135.695 421.661 131.958 421.661Z" fill="#7B7A7A"></path><path d="M148.604 412.524H154.946V415.695H148.604V412.524Z" fill="#7B7A7A"></path><path d="M157.592 412.524H169.748V415.695H157.592V412.524Z" fill="#7B7A7A"></path><path d="M148.604 424.681H154.946V427.852H148.604V424.681Z" fill="#7B7A7A"></path><path d="M157.592 424.681H169.748V427.852H157.592V424.681Z" fill="#7B7A7A"></path><path d="M148.604 419.395H169.745V422.038H148.604V419.395Z" fill="#7B7A7A"></path><path d="M129.58 357.555H121.123V367.069H129.58V357.555ZM126.761 363.897H123.942V360.726H126.761V363.897Z" fill="#7B7A7A"></path><path d="M142.791 357.555H133.277V367.069H142.791V357.555ZM139.62 363.897H136.449V360.726H139.62V363.897Z" fill="#7B7A7A"></path><path d="M154.947 357.555H145.434V367.069H154.947V357.555ZM151.776 363.897H148.605V360.726H151.776V363.897Z" fill="#7B7A7A"></path><path d="M321.055 251.414C318.517 251.414 316.451 249.349 316.451 246.811C316.451 244.273 318.517 242.207 321.055 242.207C323.593 242.207 325.658 244.273 325.658 246.811C325.658 249.349 323.593 251.414 321.055 251.414Z" fill="#0C660C"></path><path d="M305.707 260.621C303.169 260.621 301.104 258.556 301.104 256.018C301.104 253.479 303.169 251.414 305.707 251.414C308.245 251.414 310.311 253.479 310.311 256.018C310.311 258.556 308.245 260.621 305.707 260.621Z" fill="#0C660C"></path><path d="M336.4 254.483C333.862 254.483 331.797 252.418 331.797 249.88C331.797 247.342 333.862 245.276 336.4 245.276C338.938 245.276 341.004 247.342 341.004 249.88C341.004 252.418 338.938 254.483 336.4 254.483Z" fill="#0C660C"></path><path d="M305.977 294.38H285.76V303.587H308.877C307.384 300.711 306.405 297.6 305.977 294.38Z" fill="#0C660C"></path><path d="M304.326 251.5C304.741 251.337 305.182 251.232 305.648 251.232C306.113 251.232 306.554 251.337 306.969 251.5V242.514H304.326V251.5Z" fill="#7B7A7A"></path><path d="M334.982 245.157C335.397 245.022 335.839 244.935 336.304 244.935C336.769 244.935 337.21 245.022 337.625 245.157V242.514H334.982V245.157Z" fill="#7B7A7A"></path><path d="M304.326 259.956V269.47H306.969V259.956C306.554 260.129 306.113 260.239 305.648 260.239C305.182 260.239 304.741 260.129 304.326 259.956Z" fill="#7B7A7A"></path><path d="M334.982 253.613V269.47H337.625V253.613C337.21 253.788 336.769 253.9 336.304 253.9C335.839 253.9 335.397 253.788 334.982 253.613Z" fill="#7B7A7A"></path><path d="M342.535 233H299.569C297.031 233 294.966 235.065 294.966 237.603V245.276H256.603C254.065 245.276 252 247.341 252 249.879V323.535C252 326.073 254.065 328.139 256.603 328.139H339.466V308.609C342.48 303.44 344.07 297.558 344.07 291.57V281.822C345.851 281.186 347.139 279.498 347.139 277.5V237.603C347.139 235.065 345.073 233 342.535 233ZM304.173 288.242H261.207V272.897H294.966V277.5C294.966 280.039 297.031 282.104 299.569 282.104H304.173V288.242ZM256.603 248.345H294.966V263.69H255.069V249.879C255.069 249.032 255.756 248.345 256.603 248.345ZM255.069 323.535V266.759H294.966V269.828H258.138V291.311H304.199C304.333 297.598 306.475 303.737 310.311 308.721V325.07H256.603C255.756 325.07 255.069 324.382 255.069 323.535ZM313.38 325.07V309.725H336.397V325.07H313.38ZM341.001 291.57C341.001 296.861 339.62 302.054 337.03 306.656H312.623C309.159 302.075 307.242 296.442 307.242 290.693V275.966C308.934 275.966 310.311 277.342 310.311 279.035V288.242C310.311 290.78 312.376 292.845 314.914 292.845C317.452 292.845 319.518 290.78 319.518 288.242V265.224C319.518 264.377 320.205 263.69 321.052 263.69C321.899 263.69 322.587 264.377 322.587 265.224V289.776H325.656V274.431C325.656 273.584 326.343 272.897 327.19 272.897C328.037 272.897 328.725 273.584 328.725 274.431V289.776H331.794V277.5C331.794 276.653 332.481 275.966 333.328 275.966C334.175 275.966 334.863 276.653 334.863 277.5V289.776H337.932V280.569C337.932 279.722 338.619 279.035 339.466 279.035C340.313 279.035 341.001 279.722 341.001 280.569V291.57ZM313.38 282.104H316.449V288.242C316.449 289.089 315.761 289.776 314.914 289.776C314.067 289.776 313.38 289.089 313.38 288.242V282.104ZM344.07 277.5C344.07 277.93 343.892 278.315 343.606 278.595C342.865 277.046 341.296 275.966 339.466 275.966C338.86 275.966 338.285 276.09 337.754 276.304C337.224 274.347 335.451 272.897 333.328 272.897C332.722 272.897 332.147 273.021 331.616 273.235C331.086 271.278 329.313 269.828 327.19 269.828C326.65 269.828 326.138 269.938 325.656 270.11V265.224C325.656 263.227 324.368 261.539 322.587 260.903V251.13C322.105 251.303 321.593 251.414 321.052 251.414C320.512 251.414 320 251.303 319.518 251.132V260.905C317.736 261.54 316.449 263.228 316.449 265.226V279.036H313.38C313.38 275.651 310.627 272.898 307.242 272.898C305.549 272.898 304.173 274.275 304.173 275.967V279.036H299.569C298.722 279.036 298.035 278.349 298.035 277.502V237.603C298.035 236.756 298.722 236.069 299.569 236.069H342.535C343.382 236.069 344.07 236.756 344.07 237.603V277.5Z" fill="#7B7A7A"></path><path d="M269.181 297.483C263.208 297.483 258.346 302.227 258.346 308.054C258.346 313.882 263.208 318.625 269.181 318.625C275.154 318.625 280.016 313.882 280.016 308.054C280.016 302.227 275.154 297.483 269.181 297.483ZM276.764 306.544H270.729V300.656C273.757 301.259 276.146 303.59 276.764 306.544ZM267.633 300.656V307.429L262.731 312.212C261.92 311.017 261.441 309.59 261.441 308.054C261.441 304.409 264.105 301.358 267.633 300.656ZM269.181 315.605C267.607 315.605 266.144 315.138 264.92 314.347L269.822 309.565H276.764C276.044 313.006 272.918 315.605 269.181 315.605Z" fill="#7B7A7A"></path><path d="M285.826 306.469H292.169V309.64H285.826V306.469Z" fill="#7B7A7A"></path><path d="M294.814 306.469H306.971V309.64H294.814V306.469Z" fill="#7B7A7A"></path><path d="M285.826 318.625H292.169V321.797H285.826V318.625Z" fill="#7B7A7A"></path><path d="M294.814 318.625H306.971V321.797H294.814V318.625Z" fill="#7B7A7A"></path><path d="M285.826 313.34H306.968V315.982H285.826V313.34Z" fill="#7B7A7A"></path><path d="M266.802 251.499H258.346V261.013H266.802V251.499ZM263.984 257.842H261.165V254.67H263.984V257.842Z" fill="#7B7A7A"></path><path d="M280.014 251.499H270.5V261.013H280.014V251.499ZM276.843 257.842H273.671V254.67H276.843V257.842Z" fill="#7B7A7A"></path><path d="M292.17 251.499H282.656V261.013H292.17V251.499ZM288.999 257.842H285.828V254.67H288.999V257.842Z" fill="#7B7A7A"></path><rect x="419" y="319" width="66" height="106" rx="5" fill="white"></rect><path d="M477.524 314H426.7C422.466 314 419 317.462 419 321.7V420.297C419 424.534 422.466 428 426.7 428H477.524C481.759 428 485.224 424.541 485.224 420.3V321.7C485.224 317.462 481.759 314 477.524 314ZM443.982 319.55H460.242C460.757 319.55 461.173 319.967 461.173 320.485C461.173 321 460.757 321.417 460.242 321.417H443.982C443.468 321.417 443.051 321 443.051 320.485C443.051 319.967 443.468 319.55 443.982 319.55ZM452.112 424.15C449.985 424.15 448.262 422.427 448.262 420.297C448.262 418.167 449.985 416.447 452.112 416.447C454.239 416.447 455.962 418.167 455.962 420.297C455.962 422.427 454.239 424.15 452.112 424.15ZM479.866 413.75H424.358V326.211H479.866V413.75Z" fill="#7B7A7A"></path><path d="M462.84 356.29C461.56 356.29 460.518 355.248 460.518 353.968C460.518 352.687 461.56 351.645 462.84 351.645C464.121 351.645 465.163 352.687 465.163 353.968C465.163 355.248 464.121 356.29 462.84 356.29Z" fill="#0C660C"></path><path d="M455.096 360.935C453.816 360.935 452.773 359.893 452.773 358.613C452.773 357.332 453.816 356.29 455.096 356.29C456.377 356.29 457.419 357.332 457.419 358.613C457.419 359.893 456.377 360.935 455.096 360.935Z" fill="#0C660C"></path><path d="M470.582 357.839C469.302 357.839 468.26 356.797 468.26 355.516C468.26 354.236 469.302 353.194 470.582 353.194C471.863 353.194 472.905 354.236 472.905 355.516C472.905 356.797 471.863 357.839 470.582 357.839Z" fill="#0C660C"></path><path d="M455.233 377.968H445.033V382.613H456.696C455.943 381.162 455.449 379.592 455.233 377.968Z" fill="#0C660C"></path><path d="M454.4 356.334C454.61 356.252 454.832 356.199 455.067 356.199C455.302 356.199 455.524 356.252 455.734 356.334V351.8H454.4V356.334Z" fill="#7B7A7A"></path><path d="M469.867 353.134C470.077 353.065 470.299 353.021 470.534 353.021C470.769 353.021 470.991 353.065 471.201 353.134V351.8H469.867V353.134Z" fill="#7B7A7A"></path><path d="M454.4 360.6V365.4H455.734V360.6C455.524 360.687 455.302 360.743 455.067 360.743C454.832 360.743 454.61 360.687 454.4 360.6Z" fill="#7B7A7A"></path><path d="M469.867 357.4V365.4H471.201V357.4C470.991 357.488 470.769 357.544 470.534 357.544C470.299 357.544 470.077 357.488 469.867 357.4Z" fill="#7B7A7A"></path><path d="M473.677 347H452C450.719 347 449.677 348.042 449.677 349.323V353.194H430.323C429.042 353.194 428 354.236 428 355.516V392.677C428 393.958 429.042 395 430.323 395H472.129V385.147C473.65 382.539 474.452 379.571 474.452 376.55V371.632C475.35 371.311 476 370.46 476 369.452V349.323C476 348.042 474.958 347 473.677 347ZM454.323 374.871H432.645V367.129H449.677V369.452C449.677 370.732 450.719 371.774 452 371.774H454.323V374.871ZM430.323 354.742H449.677V362.484H429.548V355.516C429.548 355.089 429.895 354.742 430.323 354.742ZM429.548 392.677V364.032H449.677V365.581H431.097V376.419H454.336C454.403 379.591 455.484 382.689 457.419 385.203V393.452H430.323C429.895 393.452 429.548 393.105 429.548 392.677ZM458.968 393.452V385.71H470.581V393.452H458.968ZM472.903 376.55C472.903 379.22 472.206 381.839 470.9 384.161H458.586C456.838 381.85 455.871 379.008 455.871 376.107V368.677C456.725 368.677 457.419 369.372 457.419 370.226V374.871C457.419 376.151 458.461 377.194 459.742 377.194C461.022 377.194 462.065 376.151 462.065 374.871V363.258C462.065 362.831 462.411 362.484 462.839 362.484C463.266 362.484 463.613 362.831 463.613 363.258V375.645H465.161V367.903C465.161 367.476 465.508 367.129 465.935 367.129C466.363 367.129 466.71 367.476 466.71 367.903V375.645H468.258V369.452C468.258 369.024 468.605 368.677 469.032 368.677C469.46 368.677 469.806 369.024 469.806 369.452V375.645H471.355V371C471.355 370.573 471.702 370.226 472.129 370.226C472.556 370.226 472.903 370.573 472.903 371V376.55ZM458.968 371.774H460.516V374.871C460.516 375.298 460.169 375.645 459.742 375.645C459.315 375.645 458.968 375.298 458.968 374.871V371.774ZM474.452 369.452C474.452 369.668 474.362 369.863 474.218 370.004C473.844 369.222 473.052 368.677 472.129 368.677C471.823 368.677 471.533 368.74 471.265 368.848C470.998 367.861 470.103 367.129 469.032 367.129C468.726 367.129 468.436 367.192 468.168 367.299C467.901 366.312 467.006 365.581 465.935 365.581C465.663 365.581 465.404 365.636 465.161 365.723V363.258C465.161 362.25 464.512 361.398 463.613 361.078V356.147C463.37 356.235 463.111 356.29 462.839 356.29C462.566 356.29 462.308 356.235 462.065 356.148V361.079C461.166 361.399 460.516 362.251 460.516 363.259V370.227H458.968C458.968 368.519 457.579 367.13 455.871 367.13C455.017 367.13 454.323 367.824 454.323 368.678V370.227H452C451.573 370.227 451.226 369.88 451.226 369.452V349.323C451.226 348.895 451.573 348.548 452 348.548H473.677C474.105 348.548 474.452 348.895 474.452 349.323V369.452Z" fill="#7B7A7A"></path><path d="M436.668 379.533C433.654 379.533 431.201 381.927 431.201 384.867C431.201 387.807 433.654 390.2 436.668 390.2C439.682 390.2 442.135 387.807 442.135 384.867C442.135 381.927 439.682 379.533 436.668 379.533ZM440.494 384.105H437.449V381.134C438.976 381.438 440.182 382.615 440.494 384.105ZM435.887 381.134V384.551L433.414 386.964C433.004 386.362 432.763 385.642 432.763 384.867C432.763 383.028 434.107 381.488 435.887 381.134ZM436.668 388.676C435.874 388.676 435.136 388.441 434.518 388.042L436.991 385.629H440.494C440.131 387.365 438.553 388.676 436.668 388.676Z" fill="#7B7A7A"></path><path d="M445.066 384.067H448.266V385.667H445.066V384.067Z" fill="#7B7A7A"></path><path d="M449.602 384.067H455.735V385.667H449.602V384.067Z" fill="#7B7A7A"></path><path d="M445.066 390.2H448.266V391.8H445.066V390.2Z" fill="#7B7A7A"></path><path d="M449.602 390.2H455.735V391.8H449.602V390.2Z" fill="#7B7A7A"></path><path d="M445.066 387.533H455.733V388.867H445.066V387.533Z" fill="#7B7A7A"></path><path d="M435.468 356.333H431.201V361.133H435.468V356.333ZM434.046 359.533H432.623V357.933H434.046V359.533Z" fill="#7B7A7A"></path><path d="M442.134 356.333H437.334V361.133H442.134V356.333ZM440.534 359.533H438.934V357.933H440.534V359.533Z" fill="#7B7A7A"></path><path d="M448.267 356.333H443.467V361.133H448.267V356.333ZM446.667 359.533H445.067V357.933H446.667V359.533Z" fill="#7B7A7A"></path></svg>