<svg xmlns="http://www.w3.org/2000/svg" width="227.344" height="52" viewBox="0 0 227.344 52"><path d="M12.535,0h0A12.535,12.535,0,0,0,0,12.535H0A12.535,12.535,0,0,0,12.535,25.07h0A12.535,12.535,0,0,0,25.07,12.535h0A12.535,12.535,0,0,0,12.535,0Zm7.522,12.535a7.522,7.522,0,0,1-7.522,7.525h0a7.522,7.522,0,0,1-7.52-7.525h0a7.522,7.522,0,0,1,7.52-7.52h0a7.522,7.522,0,0,1,7.525,7.52Z" fill="#0648cc"></path><path d="M25.076,191.568,12.538,204.106,0,191.568V184.04l12.538,12.538L25.076,184.04Z" transform="translate(0 -158.964)" fill="#0648cc"></path><path d="M819.29,85.2V64.35h5.041V84.322c0,3.808,3.037,6.639,7.153,6.639s7.2-2.831,7.2-6.639V64.355h5.041V85.2c0,5.97-5.25,10.448-12.249,10.448S819.29,91.167,819.29,85.2Z" transform="translate(-707.661 -55.582)" fill="#0648cc"></path><path d="M1054.884,147.6a10.513,10.513,0,0,1-10.446,10.7,9.7,9.7,0,0,1-6.639-2.574v14.512h-4.889V137.312h4.889v2.161a9.7,9.7,0,0,1,6.639-2.574A10.512,10.512,0,0,1,1054.884,147.6Zm-4.889,0a6.131,6.131,0,1,0-1.8,4.379A6.177,6.177,0,0,0,1050,147.6Z" transform="translate(-892.175 -118.246)" fill="#0648cc"></path><path d="M1203.86,153.574l3.962-1.8a3.913,3.913,0,0,0,3.756,2.316c1.442,0,2.574-.721,2.574-2.007,0-1.184-.978-1.751-3.134-2.626-3.087-1.132-6.124-2.676-6.124-6.329,0-3.6,2.882-6.228,6.742-6.228a7.876,7.876,0,0,1,6.484,3.134l-3.087,2.522a3.594,3.594,0,0,0-3.088-1.544c-1.39,0-2.213.669-2.213,1.853,0,1.286.977,1.7,2.984,2.522,2.78,1.131,6.073,2.676,6.073,6.586,0,3.706-2.933,6.33-7.05,6.33C1208.285,158.3,1204.833,156.4,1203.86,153.574Z" transform="translate(-1039.833 -118.247)" fill="#0648cc"></path><path d="M1348.726,58.72l-8.747-10.55V58.72h-4.838V22.08h4.838V46.371l8.285-8.234h6.069l-9.265,9.265,10.083,11.322Z" transform="translate(-1153.227 -19.072)" fill="#0648cc"></path><path d="M1484.914,72.421a2.93,2.93,0,1,1,2.927,2.882A2.933,2.933,0,0,1,1484.914,72.421Zm.514,6.54h4.838V99.535h-4.838Z" transform="translate(-1282.59 -59.886)" fill="#0648cc"></path><path d="M1561.46,22.08h4.889V58.72h-4.889Z" transform="translate(-1348.71 -19.072)" fill="#0648cc"></path><path d="M1632.69,22.08h4.889V58.72h-4.889Z" transform="translate(-1410.235 -19.072)" fill="#0648cc"></path><path d="M257.66,77.321a15.877,15.877,0,1,1,15.876,15.873A15.877,15.877,0,0,1,257.66,77.321Zm26.751,0A10.877,10.877,0,1,0,273.535,88.2,10.721,10.721,0,0,0,284.411,77.321Z" transform="translate(-222.554 -53.069)"></path><path d="M532,22.08h4.891v36.7H532Z" transform="translate(-459.515 -19.072)"></path><path d="M632.3,154.125v4.021a3.407,3.407,0,0,1-1.65.409,6.108,6.108,0,0,1-5.567-3.454,9.513,9.513,0,0,1-7.372,3.454,10.726,10.726,0,0,1,0-21.446,9.716,9.716,0,0,1,6.65,2.574V137.52h4.9V151.8c0,1.805.928,2.316,1.908,2.316Zm-7.784-6.295a6.171,6.171,0,1,0-1.808,4.379A6.187,6.187,0,0,0,624.52,147.83Z" transform="translate(-524.512 -118.427)"></path></svg>