<svg xmlns="http://www.w3.org/2000/svg" width="250.92" height="45.09" viewBox="0 0 250.92 45.09"><path d="M12.521,0h0A12.521,12.521,0,0,0,0,12.521H0A12.521,12.521,0,0,0,12.521,25.042h0A12.521,12.521,0,0,0,25.042,12.521h0A12.521,12.521,0,0,0,12.521,0Zm7.514,12.521a7.514,7.514,0,0,1-7.514,7.517h0A7.514,7.514,0,0,1,5.01,12.521h0A7.514,7.514,0,0,1,12.521,5.01h0a7.514,7.514,0,0,1,7.517,7.511Z" fill="#c70f18"></path><path d="M25.047,191.559,12.524,204.083,0,191.559V184.04l12.524,12.524L25.047,184.04Z" transform="translate(0 -158.993)" fill="#c70f18"></path><path d="M856.392,67.78v30.9h-5.036L834.248,75.712V98.685H829.2V67.78h5.048L851.4,90.7V67.78Z" transform="translate(-716.349 -58.555)" fill="#c70f18"></path><path d="M1060.3,156.451V143.47h4.842v12.363c0,2.523,1.6,4.121,3.811,4.121s3.811-1.6,3.811-4.121V143.47h4.842v12.981c0,4.944-3.246,8.03-8.654,8.03S1060.3,161.4,1060.3,156.451Z" transform="translate(-915.997 -123.944)" fill="#c70f18"></path><path d="M1231.564,140.6v4.585a8.574,8.574,0,0,0-1.752-.207,5.9,5.9,0,0,0-6.233,6.026v10.456h-4.9v-20.6h4.9v2.834a7.621,7.621,0,0,1,6.335-3.245A8.5,8.5,0,0,1,1231.564,140.6Z" transform="translate(-1052.822 -121.332)" fill="#c70f18"></path><path d="M1322.562,93.968V103.5a2.709,2.709,0,0,0,2.73,2.936h2.37V110.2a6.252,6.252,0,0,1-2.994.67,6.938,6.938,0,0,1-7-6.8V93.968h-3.4V89.847h3.4V81.4h4.9v8.447h5.2v4.121Z" transform="translate(-1135.394 -70.322)" fill="#c70f18"></path><path d="M1429.61,156.451V143.47h4.841v12.363c0,2.523,1.6,4.121,3.811,4.121s3.811-1.6,3.811-4.121V143.47h4.841v12.981c0,4.944-3.245,8.03-8.653,8.03S1429.61,161.4,1429.61,156.451Z" transform="translate(-1235.046 -123.944)" fill="#c70f18"></path><path d="M1600.873,140.6v4.585a8.553,8.553,0,0,0-1.75-.207,5.9,5.9,0,0,0-6.233,6.026v10.456h-4.9v-20.6h4.9v2.834a7.622,7.622,0,0,1,6.335-3.245A8.478,8.478,0,0,1,1600.873,140.6Z" transform="translate(-1371.871 -121.332)" fill="#c70f18"></path><path d="M1704.685,151.928h-16.9a5.988,5.988,0,0,0,6.124,5.871,5.768,5.768,0,0,0,5.564-3.553h4.893c-1.184,4.48-5.151,7.621-10.456,7.621-6.387,0-11.074-4.532-11.074-10.713s4.739-10.713,11.024-10.713a10.467,10.467,0,0,1,10.869,10.615Zm-16.483-3.5h11.178a5.57,5.57,0,0,0-5.46-3.864A5.916,5.916,0,0,0,1688.2,148.425Z" transform="translate(-1453.812 -121.327)" fill="#c70f18"></path><path d="M257.66,77.3a15.859,15.859,0,1,1,15.858,15.855A15.859,15.859,0,0,1,257.66,77.3Zm26.721,0a10.865,10.865,0,1,0-10.865,10.865A10.709,10.709,0,0,0,284.381,77.3Z" transform="translate(-222.593 -53.078)"></path><path d="M532,22.08h4.886V58.743H532Z" transform="translate(-459.597 -19.075)"></path><path d="M632.275,154.106v4.016a3.4,3.4,0,0,1-1.648.408,6.1,6.1,0,0,1-5.561-3.45,9.5,9.5,0,0,1-7.364,3.45,10.714,10.714,0,0,1,0-21.422,9.7,9.7,0,0,1,6.643,2.571v-2.16h4.893v14.263c0,1.8.927,2.314,1.905,2.314Zm-7.775-6.288a6.164,6.164,0,1,0-1.806,4.374A6.18,6.18,0,0,0,624.5,147.818Z" transform="translate(-524.606 -118.449)"></path></svg>