<svg xmlns="http://www.w3.org/2000/svg" width="600" height="600" viewBox="0 0 600 600" fill="none"><rect width="600" height="600" fill="white"></rect><path d="M199 193.5C199 240.125 159.421 278 110.5 278C61.5792 278 22 240.125 22 193.5C22 146.875 61.5792 109 110.5 109C159.421 109 199 146.875 199 193.5Z" stroke="#0FA9FF" stroke-opacity="0.47" stroke-width="2"></path><ellipse cx="121.5" cy="202.5" rx="89.5" ry="85.5" fill="#0648CC" fill-opacity="0.47"></ellipse><path d="M579 406.5C579 453.115 538.984 491 489.5 491C440.016 491 400 453.115 400 406.5C400 359.885 440.016 322 489.5 322C538.984 322 579 359.885 579 406.5Z" stroke="#0648CC" stroke-opacity="0.47" stroke-width="2"></path><ellipse cx="475.5" cy="398.5" rx="90.5" ry="85.5" fill="#0FA9FF" fill-opacity="0.47"></ellipse><rect x="120.5" y="216.5" width="367" height="206" rx="13.5" fill="white" stroke="#666666"></rect><rect x="125" y="200" width="358" height="190" rx="5" fill="white" stroke="#7B7A7A" stroke-width="10"></rect><circle cx="303.5" cy="408.5" r="5" fill="white" stroke="#666666"></circle><line x1="241" y1="456.5" x2="366" y2="456.5" stroke="#666666" stroke-width="5"></line><line x1="119.997" y1="390.227" x2="487.997" y2="390" stroke="#7B7A7A" stroke-opacity="0.99" stroke-width="10"></line><rect x="287.5" y="423.5" width="32" height="33" fill="#666666" stroke="#666666" stroke-width="3"></rect><path d="M181.188 279.375C180.325 279.375 179.48 279.448 178.648 279.552L177.086 298.28L183.203 304.397L189.321 298.28L187.745 279.375H183.203H181.188Z" fill="#0648CC"></path><path d="M269.875 289.453H265.844C262.51 289.453 259.797 286.74 259.797 283.406V277.359H269.875C273.209 277.359 275.922 280.072 275.922 283.406C275.922 286.74 273.209 289.453 269.875 289.453Z" fill="#0648CC"></path><path d="M211.422 253.172H201.344C198.01 253.172 195.297 250.459 195.297 247.125C195.297 243.791 198.01 241.078 201.344 241.078H205.375C208.709 241.078 211.422 243.791 211.422 247.125V253.172Z" fill="#0648CC"></path><path d="M263.828 243.094H275.922V267.281H263.828V243.094Z" fill="#0648CC"></path><path d="M187.234 233.016V253.766C185.956 253.384 184.604 253.172 183.203 253.172C175.425 253.172 169.094 259.501 169.094 267.281C169.094 271.79 171.226 275.799 174.528 278.385C165.546 281.219 159.016 289.626 159.016 299.531V313.641C159.016 318.087 162.632 321.703 167.078 321.703H169.094V349.922C169.094 354.368 172.71 357.984 177.156 357.984C179.577 357.984 181.724 356.892 183.203 355.199C184.683 356.892 186.829 357.984 189.25 357.984C193.696 357.984 197.312 354.368 197.312 349.922V300.065C197.312 299.193 197.425 298.338 197.639 297.516H283.984V233.016H187.234ZM173.125 267.281C173.125 261.724 177.646 257.203 183.203 257.203C188.76 257.203 193.281 261.724 193.281 267.281C193.281 272.838 188.76 277.359 183.203 277.359C177.646 277.359 173.125 272.838 173.125 267.281ZM193.281 300.065V349.922C193.281 352.145 191.473 353.953 189.25 353.953C187.027 353.953 185.219 352.145 185.219 349.922V313.641H181.188V349.922C181.188 352.145 179.379 353.953 177.156 353.953C174.933 353.953 173.125 352.145 173.125 349.922V295.5H169.094V317.672H167.078C164.855 317.672 163.047 315.864 163.047 313.641V299.531C163.047 289.53 171.184 281.391 181.188 281.391H193.89C196.504 281.391 199.06 280.667 201.285 279.296L223.437 265.665C223.862 265.403 224.35 265.266 224.85 265.266C226.335 265.266 227.547 266.477 227.547 267.963V268.749C227.547 269.668 227.085 270.512 226.315 271.014L199.725 288.22C195.69 290.83 193.281 295.258 193.281 300.065ZM215.453 265.266C215.453 254.831 223.423 246.226 233.594 245.212V266.1L248.356 280.863C244.879 283.709 240.441 285.422 235.609 285.422C230.042 285.422 224.854 283.178 221.065 279.212L228.504 274.398C230.429 273.153 231.578 271.04 231.578 268.749V267.963C231.578 264.254 228.561 261.234 224.85 261.234C223.604 261.234 222.383 261.579 221.323 262.232L215.477 265.828C215.473 265.641 215.453 265.453 215.453 265.266ZM251.206 278.012L240.475 267.281H255.663C255.26 271.329 253.651 275.027 251.206 278.012ZM237.625 263.25V245.212C247.133 246.162 254.715 253.742 255.663 263.25H237.625ZM279.953 293.484H199.772C200.388 292.771 201.1 292.13 201.914 291.602L217.65 281.419C222.238 286.53 228.67 289.453 235.609 289.453C248.947 289.453 259.797 278.603 259.797 265.266C259.797 251.928 248.947 241.078 235.609 241.078C222.272 241.078 211.422 251.928 211.422 265.266C211.422 266.247 211.503 267.229 211.621 268.202L199.171 275.864C197.583 276.843 195.756 277.359 193.89 277.359H193.06C195.68 274.796 197.312 271.228 197.312 267.281C197.312 262.498 194.916 258.271 191.266 255.72V237.047H279.953V293.484Z" fill="black"></path><path d="M269.825 327.256C273.503 324.706 275.922 320.459 275.922 315.656C275.922 307.878 269.591 301.547 261.812 301.547C254.034 301.547 247.703 307.878 247.703 315.656C247.703 320.459 250.122 324.706 253.8 327.256C248.413 329.354 244.051 333.491 241.656 338.723C239.262 333.491 234.9 329.352 229.512 327.256C233.191 324.706 235.609 320.459 235.609 315.656C235.609 307.878 229.278 301.547 221.5 301.547C213.722 301.547 207.391 307.878 207.391 315.656C207.391 320.459 209.809 324.706 213.488 327.256C205.216 330.477 199.328 338.507 199.328 347.906V357.984H239.641H243.672H283.984V347.906C283.984 338.507 278.097 330.477 269.825 327.256ZM251.734 315.656C251.734 310.099 256.255 305.578 261.812 305.578C267.37 305.578 271.891 310.099 271.891 315.656C271.891 321.213 267.37 325.734 261.812 325.734C256.255 325.734 251.734 321.213 251.734 315.656ZM211.422 315.656C211.422 310.099 215.943 305.578 221.5 305.578C227.057 305.578 231.578 310.099 231.578 315.656C231.578 321.213 227.057 325.734 221.5 325.734C215.943 325.734 211.422 321.213 211.422 315.656ZM239.641 353.953H233.594V337.828H229.562V353.953H213.438V337.828H209.406V353.953H203.359V347.906C203.359 337.903 211.496 329.766 221.5 329.766C231.504 329.766 239.641 337.903 239.641 347.906V353.953ZM279.953 353.953H273.906V337.828H269.875V353.953H253.75V337.828H249.719V353.953H243.672V347.906C243.672 337.903 251.809 329.766 261.812 329.766C271.816 329.766 279.953 337.903 279.953 347.906V353.953Z" fill="black"></path><path d="M263.828 241.078H275.922V245.109H263.828V241.078Z" fill="black"></path><path d="M263.828 249.141H275.922V253.172H263.828V249.141Z" fill="black"></path><path d="M263.828 257.203H275.922V261.234H263.828V257.203Z" fill="black"></path><path d="M263.828 265.266H275.922V269.297H263.828V265.266Z" fill="black"></path><g clip-path="url(#clip0)"><path d="M424.86 326.723H422.579V284.52C422.579 283.339 421.622 282.381 420.441 282.381H411.886C410.705 282.381 409.747 283.339 409.747 284.52V326.723H405.47V298.778C405.47 297.597 404.512 296.639 403.331 296.639H394.777C393.596 296.639 392.638 297.597 392.638 298.778V326.723H388.361V306.619C388.361 305.438 387.403 304.481 386.222 304.481H377.668C376.487 304.481 375.529 305.438 375.529 306.619V326.723H371.252V311.752C371.252 310.571 370.294 309.613 369.113 309.613H360.559C359.377 309.613 358.42 310.571 358.42 311.752V326.723H356.139C354.958 326.723 354 327.68 354 328.861C354 330.042 354.958 331 356.139 331H424.86C426.041 331 426.999 330.042 426.999 328.861C426.999 327.68 426.041 326.723 424.86 326.723Z" fill="#0648CC"></path><path d="M356.139 303.955C369.486 303.955 383.961 299.162 396.896 290.457C407.027 283.64 415.472 274.931 420.718 266.013L422.795 273.765C423.051 274.72 424.287 275.546 425.414 275.277C426.563 275.003 427.232 273.798 426.926 272.658L423.424 259.588C423.118 258.447 421.946 257.77 420.805 258.075L407.735 261.577C406.594 261.883 405.917 263.056 406.223 264.197C406.528 265.338 407.701 266.015 408.842 265.709L417.262 263.453C412.368 271.957 404.28 280.333 394.508 286.908C382.271 295.143 368.645 299.678 356.139 299.678C354.958 299.678 354 300.636 354 301.817C354 302.998 354.958 303.955 356.139 303.955Z" fill="#0648CC"></path></g><defs><clipPath id="clip0"><rect width="73" height="73" fill="white" transform="translate(354 258)"></rect></clipPath></defs></svg>