<svg xmlns="http://www.w3.org/2000/svg" width="600" height="600" viewBox="0 0 600 600" fill="none"><g clip-path="url(#clip0)"><rect width="600" height="600" fill="white"></rect><path d="M468.776 208.615C468.776 209.762 469.705 210.693 470.854 210.693H522.807C523.956 210.693 524.885 209.762 524.885 208.615V200.302H549.822C550.971 200.302 551.901 199.372 551.901 198.224V173.286H564.369C564.996 173.286 565.591 173.003 565.985 172.515C566.381 172.027 566.533 171.387 566.401 170.773L560.213 141.892C560.15 126.033 553.341 110.883 541.512 100.294C529.463 89.509 513.896 84.5623 497.689 86.3624C471.663 89.2533 450.884 110.279 448.283 136.357C446.925 149.957 450.491 163.521 458.326 174.549C465.163 184.17 468.776 195.95 468.776 208.615ZM452.419 136.77C454.827 112.631 474.058 93.1691 498.147 90.4923C513.175 88.8302 527.584 93.4055 538.74 103.391C549.745 113.242 556.057 127.356 556.057 142.115C556.057 142.261 556.073 142.407 556.104 142.55L561.798 169.13H549.822C548.674 169.13 547.744 170.061 547.744 171.208V196.146H522.807H514.494V200.302H520.729V206.536H472.901C472.524 193.793 468.676 181.94 461.715 172.142C454.462 161.933 451.16 149.371 452.419 136.77Z" fill="#C4C4C4"></path><path d="M516.213 145.697L514.669 142.007C515.002 141.323 515.296 140.612 515.547 139.879L519.255 138.358C519.947 138.074 520.432 137.439 520.528 136.697C520.666 135.613 520.729 134.694 520.729 133.802C520.729 132.91 520.666 131.991 520.528 130.907C520.432 130.165 519.947 129.53 519.255 129.246L515.547 127.725C515.296 126.993 515.004 126.282 514.671 125.597L516.213 121.906C516.501 121.215 516.396 120.424 515.937 119.832C514.75 118.298 513.372 116.919 511.84 115.733C511.247 115.272 510.452 115.171 509.766 115.458L506.074 117.001C505.388 116.669 504.678 116.375 503.947 116.125L502.425 112.417C502.141 111.724 501.508 111.238 500.765 111.143C498.598 110.869 497.141 110.869 494.973 111.143C494.23 111.238 493.597 111.724 493.313 112.417L491.791 116.125C491.06 116.375 490.35 116.669 489.664 117.001L485.973 115.458C485.285 115.171 484.489 115.272 483.899 115.733C482.366 116.92 480.988 118.298 479.801 119.83C479.343 120.422 479.237 121.214 479.525 121.905L481.07 125.596C480.737 126.281 480.442 126.992 480.191 127.725L476.483 129.246C475.791 129.53 475.306 130.165 475.211 130.907C475.073 131.991 475.01 132.91 475.01 133.802C475.01 134.694 475.073 135.613 475.211 136.697C475.306 137.439 475.791 138.074 476.483 138.358L480.191 139.879C480.443 140.611 480.735 141.322 481.068 142.007L479.525 145.697C479.237 146.388 479.343 147.18 479.801 147.771C480.988 149.306 482.366 150.685 483.899 151.871C484.489 152.331 485.285 152.432 485.973 152.146L489.664 150.603C490.35 150.935 491.06 151.229 491.791 151.479L493.313 155.187C493.597 155.88 494.23 156.366 494.973 156.46C496.057 156.597 496.976 156.661 497.869 156.661C498.762 156.661 499.681 156.597 500.765 156.46C501.508 156.366 502.141 155.88 502.425 155.187L503.947 151.479C504.68 151.229 505.39 150.935 506.074 150.602L509.766 152.146C510.452 152.432 511.247 152.331 511.84 151.871C513.372 150.685 514.75 149.306 515.937 147.771C516.396 147.18 516.501 146.387 516.213 145.697ZM513.065 136.404C512.475 136.646 512.028 137.146 511.856 137.76C511.539 138.872 511.105 139.927 510.563 140.892C510.251 141.45 510.212 142.122 510.458 142.711L511.894 146.144C511.369 146.741 510.807 147.303 510.212 147.827L506.778 146.391C506.188 146.146 505.518 146.183 504.96 146.497C503.994 147.039 502.941 147.473 501.829 147.789C501.214 147.962 500.714 148.409 500.473 148.999L499.052 152.459C498.22 152.52 497.518 152.52 496.686 152.459L495.265 148.999C495.024 148.409 494.525 147.962 493.91 147.789C492.802 147.474 491.748 147.039 490.776 146.496C490.216 146.185 489.551 146.146 488.96 146.391L485.526 147.827C484.932 147.303 484.37 146.74 483.844 146.144L485.279 142.711C485.524 142.122 485.486 141.452 485.175 140.895C484.631 139.926 484.197 138.871 483.882 137.76C483.71 137.146 483.263 136.646 482.673 136.404L479.213 134.984C479.18 134.568 479.166 134.179 479.166 133.802C479.166 133.424 479.18 133.036 479.213 132.62L482.673 131.2C483.263 130.958 483.71 130.457 483.882 129.844C484.199 128.731 484.633 127.677 485.175 126.712C485.488 126.154 485.526 125.483 485.281 124.893L483.844 121.459C484.369 120.863 484.932 120.301 485.526 119.777L488.96 121.212C489.551 121.458 490.216 121.418 490.776 121.108C491.748 120.565 492.802 120.13 493.91 119.815C494.525 119.642 495.024 119.195 495.265 118.605L496.686 115.144C497.518 115.084 498.22 115.084 499.052 115.144L500.473 118.605C500.714 119.195 501.214 119.642 501.828 119.815C502.937 120.13 503.99 120.565 504.962 121.108C505.518 121.418 506.188 121.458 506.778 121.212L510.212 119.777C510.807 120.301 511.369 120.864 511.894 121.46L510.46 124.893C510.214 125.482 510.253 126.152 510.563 126.709C511.107 127.678 511.541 128.732 511.856 129.844C512.028 130.457 512.475 130.958 513.065 131.2L516.525 132.62C516.558 133.036 516.572 133.424 516.572 133.802C516.572 134.179 516.558 134.568 516.526 134.984L513.065 136.404Z" fill="#C4C4C4"></path><path d="M497.869 123.412C492.14 123.412 487.479 128.073 487.479 133.802C487.479 139.531 492.14 144.193 497.869 144.193C503.598 144.193 508.26 139.531 508.26 133.802C508.26 128.073 503.598 123.412 497.869 123.412ZM497.869 140.037C494.431 140.037 491.635 137.24 491.635 133.802C491.635 130.364 494.431 127.568 497.869 127.568C501.307 127.568 504.104 130.364 504.104 133.802C504.104 137.24 501.307 140.037 497.869 140.037Z" fill="#C4C4C4"></path><path d="M515.115 157.238L517.583 160.583C519.961 158.829 522.098 156.765 523.937 154.447L520.682 151.863C519.071 153.895 517.197 155.703 515.115 157.238Z" fill="#C4C4C4"></path><path d="M468.258 148.937L471.956 147.041C471.061 145.292 470.342 143.449 469.821 141.562C469.126 139.049 468.775 136.439 468.775 133.802C468.775 117.76 481.827 104.709 497.869 104.709H513.634L510.947 107.396L513.885 110.334L520.12 104.1C520.931 103.288 520.931 101.973 520.12 101.161L513.885 94.9268L510.947 97.8654L513.634 100.552H497.869C479.535 100.552 464.619 115.469 464.619 133.802C464.619 136.812 465.021 139.795 465.814 142.668C466.411 144.827 467.233 146.936 468.258 148.937Z" fill="#C4C4C4"></path><path d="M529.924 142.668L525.918 141.562C525.23 144.056 524.207 146.447 522.882 148.672L526.45 150.8C527.968 148.258 529.137 145.521 529.924 142.668Z" fill="#C4C4C4"></path><path d="M473.948 150.365L470.531 152.734C472.215 155.162 474.216 157.359 476.483 159.264L479.158 156.082C477.173 154.414 475.42 152.491 473.948 150.365Z" fill="#C4C4C4"></path><path d="M504.635 162.106L505.597 166.148C508.475 165.464 511.249 164.394 513.849 162.967L511.848 159.324C509.577 160.571 507.15 161.507 504.635 162.106Z" fill="#C4C4C4"></path><path d="M480.057 161.882C482.557 163.472 485.259 164.719 488.086 165.589L489.307 161.615C486.835 160.856 484.475 159.766 482.289 158.375L480.057 161.882Z" fill="#C4C4C4"></path><path d="M501.232 166.885L500.814 162.749C499.848 162.846 498.868 162.896 497.895 162.896C496.282 162.972 494.661 162.765 493.082 162.504L492.404 166.604C494.208 166.902 496.134 167.028 497.897 167.052C499.006 167.052 500.126 166.996 501.232 166.885Z" fill="#C4C4C4"></path><path d="M489.557 196.146H493.713V200.302H489.557V196.146Z" fill="#C4C4C4"></path><path d="M497.869 196.146H502.025V200.302H497.869V196.146Z" fill="#C4C4C4"></path><path d="M506.182 196.146H510.338V200.302H506.182V196.146Z" fill="#C4C4C4"></path><path d="M579 428.5C579 475.115 538.984 513 489.5 513C440.016 513 400 475.115 400 428.5C400 381.885 440.016 344 489.5 344C538.984 344 579 381.885 579 428.5Z" stroke="#EF710A" stroke-opacity="0.5" stroke-width="2"></path><ellipse cx="475.5" cy="420.5" rx="90.5" ry="85.5" fill="#FED328" fill-opacity="0.5"></ellipse><path d="M199 215.5C199 262.125 159.421 300 110.5 300C61.5792 300 22 262.125 22 215.5C22 168.875 61.5792 131 110.5 131C159.421 131 199 168.875 199 215.5Z" stroke="#FED328" stroke-opacity="0.5" stroke-width="2"></path><ellipse cx="121.5" cy="224.5" rx="89.5" ry="85.5" fill="#EF710A" fill-opacity="0.5"></ellipse><rect x="74.5" y="177.5" width="425" height="232" rx="2.5" fill="white" stroke="#7B7A7A" stroke-width="5"></rect><rect x="101" y="198" width="59" height="27" rx="5" fill="#323232"></rect><rect x="139.5" y="165.5" width="295" height="19" rx="4.5" fill="white" stroke="#7B7A7A"></rect><g clip-path="url(#clip1)"><path d="M155.917 174.583H150.083C149.623 174.583 149.25 174.957 149.25 175.417V178.333C149.25 178.794 149.623 179.167 150.083 179.167H155.917C156.377 179.167 156.75 178.794 156.75 178.333V175.417C156.75 174.957 156.377 174.583 155.917 174.583Z" stroke="#3F9B06" stroke-width="2" stroke-linecap="round" stroke-linejoin="round"></path><path d="M150.917 174.583V172.917C150.917 172.364 151.136 171.834 151.527 171.444C151.917 171.053 152.447 170.833 153 170.833C153.552 170.833 154.082 171.053 154.473 171.444C154.864 171.834 155.083 172.364 155.083 172.917V174.583" stroke="#3F9B06" stroke-width="2" stroke-linecap="round" stroke-linejoin="round"></path></g><path d="M168.063 176.686C168.063 176.531 167.985 176.409 167.83 176.321C167.678 176.23 167.432 176.15 167.092 176.08C165.961 175.842 165.396 175.362 165.396 174.638C165.396 174.216 165.57 173.865 165.918 173.583C166.27 173.299 166.729 173.157 167.294 173.157C167.897 173.157 168.379 173.299 168.74 173.583C169.103 173.868 169.285 174.237 169.285 174.691H168.015C168.015 174.509 167.956 174.36 167.839 174.243C167.722 174.123 167.539 174.062 167.29 174.062C167.076 174.062 166.91 174.111 166.793 174.208C166.676 174.304 166.617 174.427 166.617 174.577C166.617 174.717 166.683 174.832 166.815 174.919C166.95 175.004 167.175 175.079 167.492 175.144C167.808 175.205 168.075 175.275 168.292 175.354C168.962 175.601 169.298 176.027 169.298 176.633C169.298 177.067 169.112 177.418 168.74 177.688C168.368 177.955 167.887 178.088 167.298 178.088C166.9 178.088 166.545 178.018 166.235 177.877C165.927 177.733 165.686 177.539 165.51 177.292C165.334 177.043 165.246 176.775 165.246 176.488H166.45C166.462 176.714 166.545 176.887 166.701 177.007C166.856 177.127 167.064 177.187 167.325 177.187C167.568 177.187 167.751 177.142 167.874 177.051C168 176.957 168.063 176.835 168.063 176.686ZM172.308 178.088C171.611 178.088 171.042 177.874 170.603 177.446C170.167 177.019 169.948 176.449 169.948 175.737V175.614C169.948 175.136 170.041 174.71 170.225 174.335C170.41 173.957 170.67 173.667 171.007 173.465C171.347 173.26 171.734 173.157 172.167 173.157C172.818 173.157 173.329 173.362 173.701 173.772C174.076 174.183 174.264 174.764 174.264 175.517V176.036H171.236C171.277 176.346 171.4 176.595 171.605 176.783C171.813 176.97 172.075 177.064 172.392 177.064C172.881 177.064 173.263 176.887 173.539 176.532L174.163 177.231C173.972 177.5 173.714 177.711 173.389 177.864C173.064 178.013 172.704 178.088 172.308 178.088ZM172.163 174.186C171.911 174.186 171.706 174.271 171.548 174.44C171.393 174.61 171.293 174.854 171.249 175.17H173.016V175.069C173.01 174.788 172.934 174.571 172.787 174.418C172.641 174.263 172.433 174.186 172.163 174.186ZM176.966 177.064C177.201 177.064 177.391 177 177.538 176.871C177.684 176.742 177.76 176.57 177.766 176.356H178.957C178.954 176.679 178.866 176.975 178.693 177.244C178.521 177.511 178.283 177.719 177.981 177.868C177.683 178.015 177.352 178.088 176.988 178.088C176.309 178.088 175.772 177.873 175.38 177.442C174.987 177.008 174.791 176.411 174.791 175.649V175.565C174.791 174.833 174.986 174.249 175.375 173.812C175.765 173.375 176.3 173.157 176.979 173.157C177.574 173.157 178.05 173.327 178.408 173.667C178.768 174.004 178.951 174.454 178.957 175.016H177.766C177.76 174.77 177.684 174.571 177.538 174.418C177.391 174.263 177.198 174.186 176.958 174.186C176.662 174.186 176.438 174.294 176.285 174.511C176.136 174.725 176.061 175.073 176.061 175.557V175.688C176.061 176.178 176.136 176.529 176.285 176.743C176.435 176.957 176.662 177.064 176.966 177.064ZM182.53 177.517C182.216 177.897 181.783 178.088 181.229 178.088C180.719 178.088 180.33 177.941 180.06 177.648C179.793 177.355 179.657 176.926 179.651 176.361V173.245H180.921V176.317C180.921 176.812 181.147 177.06 181.598 177.06C182.029 177.06 182.325 176.91 182.486 176.611V173.245H183.76V178H182.565L182.53 177.517ZM187.39 174.436C187.217 174.413 187.065 174.401 186.933 174.401C186.453 174.401 186.138 174.563 185.988 174.889V178H184.718V173.245H185.918L185.953 173.812C186.208 173.375 186.561 173.157 187.012 173.157C187.153 173.157 187.285 173.176 187.408 173.214L187.39 174.436ZM190.106 178.088C189.409 178.088 188.84 177.874 188.401 177.446C187.964 177.019 187.746 176.449 187.746 175.737V175.614C187.746 175.136 187.838 174.71 188.023 174.335C188.208 173.957 188.468 173.667 188.805 173.465C189.145 173.26 189.532 173.157 189.965 173.157C190.616 173.157 191.127 173.362 191.499 173.772C191.874 174.183 192.062 174.764 192.062 175.517V176.036H189.034C189.075 176.346 189.198 176.595 189.403 176.783C189.611 176.97 189.873 177.064 190.189 177.064C190.679 177.064 191.061 176.887 191.336 176.532L191.96 177.231C191.77 177.5 191.512 177.711 191.187 177.864C190.862 178.013 190.501 178.088 190.106 178.088ZM189.961 174.186C189.709 174.186 189.504 174.271 189.346 174.44C189.19 174.61 189.091 174.854 189.047 175.17H190.813V175.069C190.808 174.788 190.731 174.571 190.585 174.418C190.438 174.263 190.23 174.186 189.961 174.186ZM196.069 179.187H195.3V171.602H196.069V179.187ZM200.785 173.764C201.122 173.359 201.545 173.157 202.055 173.157C203.086 173.157 203.609 173.756 203.624 174.955V178H202.354V174.99C202.354 174.717 202.295 174.517 202.178 174.388C202.061 174.256 201.866 174.19 201.593 174.19C201.221 174.19 200.952 174.333 200.785 174.621V178H199.515V171.25H200.785V173.764ZM206.102 172.076V173.245H206.915V174.177H206.102V176.55C206.102 176.726 206.136 176.852 206.203 176.928C206.271 177.004 206.399 177.042 206.59 177.042C206.73 177.042 206.855 177.032 206.963 177.011V177.974C206.714 178.05 206.458 178.088 206.194 178.088C205.304 178.088 204.85 177.638 204.832 176.739V174.177H204.138V173.245H204.832V172.076H206.102ZM209.143 172.076V173.245H209.956V174.177H209.143V176.55C209.143 176.726 209.177 176.852 209.244 176.928C209.312 177.004 209.44 177.042 209.631 177.042C209.771 177.042 209.896 177.032 210.004 177.011V177.974C209.755 178.05 209.499 178.088 209.235 178.088C208.345 178.088 207.891 177.638 207.873 176.739V174.177H207.179V173.245H207.873V172.076H209.143ZM214.944 175.667C214.944 176.399 214.777 176.986 214.443 177.429C214.112 177.868 213.664 178.088 213.098 178.088C212.618 178.088 212.229 177.921 211.934 177.587V179.828H210.664V173.245H211.841L211.885 173.711C212.193 173.342 212.594 173.157 213.089 173.157C213.675 173.157 214.131 173.374 214.456 173.808C214.781 174.241 214.944 174.839 214.944 175.601V175.667ZM213.674 175.574C213.674 175.132 213.595 174.791 213.437 174.55C213.281 174.31 213.054 174.19 212.755 174.19C212.357 174.19 212.083 174.342 211.934 174.647V176.594C212.089 176.907 212.366 177.064 212.764 177.064C213.371 177.064 213.674 176.567 213.674 175.574ZM218.31 176.686C218.31 176.531 218.232 176.409 218.077 176.321C217.925 176.23 217.679 176.15 217.339 176.08C216.208 175.842 215.643 175.362 215.643 174.638C215.643 174.216 215.817 173.865 216.166 173.583C216.517 173.299 216.976 173.157 217.541 173.157C218.145 173.157 218.626 173.299 218.987 173.583C219.35 173.868 219.532 174.237 219.532 174.691H218.262C218.262 174.509 218.203 174.36 218.086 174.243C217.969 174.123 217.786 174.062 217.537 174.062C217.323 174.062 217.157 174.111 217.04 174.208C216.923 174.304 216.864 174.427 216.864 174.577C216.864 174.717 216.93 174.832 217.062 174.919C217.197 175.004 217.422 175.079 217.739 175.144C218.055 175.205 218.322 175.275 218.539 175.354C219.209 175.601 219.545 176.027 219.545 176.633C219.545 177.067 219.359 177.418 218.987 177.688C218.615 177.955 218.134 178.088 217.545 178.088C217.147 178.088 216.792 178.018 216.482 177.877C216.174 177.733 215.933 177.539 215.757 177.292C215.581 177.043 215.493 176.775 215.493 176.488H216.697C216.709 176.714 216.792 176.887 216.948 177.007C217.103 177.127 217.311 177.187 217.572 177.187C217.815 177.187 217.998 177.142 218.121 177.051C218.247 176.957 218.31 176.835 218.31 176.686ZM220.428 177.376C220.428 177.174 220.496 177.01 220.63 176.884C220.768 176.758 220.939 176.695 221.145 176.695C221.353 176.695 221.524 176.758 221.659 176.884C221.796 177.01 221.865 177.174 221.865 177.376C221.865 177.575 221.798 177.738 221.663 177.864C221.528 177.987 221.355 178.048 221.145 178.048C220.937 178.048 220.765 177.987 220.63 177.864C220.496 177.738 220.428 177.575 220.428 177.376ZM220.428 173.777C220.428 173.575 220.496 173.411 220.63 173.285C220.768 173.159 220.939 173.096 221.145 173.096C221.353 173.096 221.524 173.159 221.659 173.285C221.796 173.411 221.865 173.575 221.865 173.777C221.865 173.976 221.798 174.139 221.663 174.265C221.528 174.388 221.355 174.449 221.145 174.449C220.937 174.449 220.765 174.388 220.63 174.265C220.496 174.139 220.428 173.976 220.428 173.777ZM223.307 178.549H222.362L224.717 171.602H225.662L223.307 178.549ZM225.583 178.549H224.638L226.994 171.602H227.938L225.583 178.549ZM232.685 176.273L233.309 173.245H234.535L233.322 178H232.258L231.357 175.007L230.457 178H229.397L228.185 173.245H229.411L230.03 176.269L230.9 173.245H231.819L232.685 176.273ZM239.303 176.273L239.927 173.245H241.153L239.94 178H238.876L237.976 175.007L237.075 178H236.016L234.803 173.245H236.029L236.648 176.269L237.519 173.245H238.437L239.303 176.273ZM245.921 176.273L246.545 173.245H247.771L246.558 178H245.495L244.594 175.007L243.693 178H242.634L241.421 173.245H242.647L243.267 176.269L244.137 173.245H245.055L245.921 176.273ZM247.925 177.376C247.925 177.174 247.992 177.01 248.127 176.884C248.265 176.758 248.436 176.695 248.641 176.695C248.849 176.695 249.021 176.758 249.155 176.884C249.293 177.01 249.362 177.174 249.362 177.376C249.362 177.575 249.294 177.738 249.16 177.864C249.025 177.987 248.852 178.048 248.641 178.048C248.433 178.048 248.262 177.987 248.127 177.864C247.992 177.738 247.925 177.575 247.925 177.376ZM250.28 175.587C250.28 174.846 250.446 174.256 250.777 173.816C251.111 173.377 251.566 173.157 252.144 173.157C252.606 173.157 252.989 173.33 253.291 173.676V171.25H254.565V178H253.418L253.356 177.495C253.04 177.89 252.633 178.088 252.135 178.088C251.575 178.088 251.125 177.868 250.786 177.429C250.449 176.986 250.28 176.373 250.28 175.587ZM251.55 175.68C251.55 176.125 251.628 176.466 251.783 176.704C251.938 176.941 252.164 177.06 252.46 177.06C252.853 177.06 253.129 176.894 253.291 176.563V174.687C253.132 174.355 252.858 174.19 252.469 174.19C251.856 174.19 251.55 174.687 251.55 175.68ZM255.352 175.579C255.352 175.107 255.442 174.687 255.624 174.317C255.806 173.948 256.066 173.663 256.406 173.46C256.749 173.258 257.146 173.157 257.597 173.157C258.239 173.157 258.762 173.354 259.166 173.746C259.573 174.139 259.8 174.672 259.847 175.346L259.856 175.671C259.856 176.4 259.652 176.986 259.245 177.429C258.838 177.868 258.292 178.088 257.606 178.088C256.92 178.088 256.373 177.868 255.962 177.429C255.555 176.989 255.352 176.392 255.352 175.636V175.579ZM256.622 175.671C256.622 176.122 256.707 176.468 256.876 176.708C257.046 176.945 257.29 177.064 257.606 177.064C257.914 177.064 258.154 176.947 258.327 176.712C258.5 176.475 258.586 176.097 258.586 175.579C258.586 175.136 258.5 174.793 258.327 174.55C258.154 174.307 257.911 174.186 257.597 174.186C257.287 174.186 257.046 174.307 256.876 174.55C256.707 174.791 256.622 175.164 256.622 175.671ZM261.829 173.245L261.869 173.777C262.206 173.364 262.661 173.157 263.235 173.157C263.848 173.157 264.268 173.399 264.497 173.882C264.831 173.399 265.307 173.157 265.925 173.157C266.44 173.157 266.824 173.308 267.076 173.61C267.328 173.909 267.454 174.36 267.454 174.963V178H266.18V174.968C266.18 174.698 266.127 174.502 266.021 174.379C265.916 174.253 265.73 174.19 265.463 174.19C265.083 174.19 264.819 174.372 264.672 174.735L264.677 178H263.407V174.972C263.407 174.697 263.353 174.498 263.244 174.375C263.136 174.251 262.951 174.19 262.69 174.19C262.33 174.19 262.069 174.339 261.908 174.638V178H260.638V173.245H261.829ZM271.189 178C271.131 177.886 271.088 177.744 271.062 177.574C270.754 177.917 270.354 178.088 269.862 178.088C269.396 178.088 269.01 177.953 268.702 177.684C268.397 177.414 268.245 177.074 268.245 176.664C268.245 176.16 268.431 175.773 268.803 175.504C269.178 175.234 269.719 175.098 270.425 175.095H271.009V174.823C271.009 174.603 270.952 174.427 270.838 174.295C270.727 174.164 270.549 174.098 270.306 174.098C270.092 174.098 269.924 174.149 269.801 174.251C269.681 174.354 269.621 174.495 269.621 174.673H268.351C268.351 174.398 268.436 174.143 268.605 173.909C268.775 173.674 269.016 173.491 269.326 173.359C269.637 173.225 269.985 173.157 270.372 173.157C270.958 173.157 271.422 173.305 271.765 173.601C272.111 173.894 272.284 174.307 272.284 174.84V176.901C272.287 177.353 272.35 177.694 272.473 177.925V178H271.189ZM270.139 177.117C270.327 177.117 270.5 177.076 270.658 176.994C270.816 176.909 270.933 176.796 271.009 176.655V175.838H270.535C269.899 175.838 269.561 176.058 269.52 176.497L269.515 176.572C269.515 176.73 269.571 176.86 269.682 176.963C269.793 177.065 269.946 177.117 270.139 177.117ZM274.6 178H273.325V173.245H274.6V178ZM273.25 172.015C273.25 171.824 273.313 171.667 273.439 171.544C273.568 171.421 273.743 171.36 273.962 171.36C274.179 171.36 274.352 171.421 274.481 171.544C274.61 171.667 274.674 171.824 274.674 172.015C274.674 172.208 274.608 172.366 274.477 172.489C274.348 172.612 274.176 172.674 273.962 172.674C273.749 172.674 273.576 172.612 273.444 172.489C273.315 172.366 273.25 172.208 273.25 172.015ZM276.819 173.245L276.858 173.794C277.198 173.37 277.654 173.157 278.225 173.157C278.729 173.157 279.104 173.305 279.35 173.601C279.596 173.897 279.722 174.339 279.728 174.928V178H278.458V174.959C278.458 174.689 278.399 174.495 278.282 174.375C278.165 174.251 277.97 174.19 277.698 174.19C277.34 174.19 277.072 174.342 276.894 174.647V178H275.624V173.245H276.819ZM280.761 177.376C280.761 177.174 280.828 177.01 280.963 176.884C281.101 176.758 281.272 176.695 281.477 176.695C281.685 176.695 281.856 176.758 281.991 176.884C282.129 177.01 282.198 177.174 282.198 177.376C282.198 177.575 282.13 177.738 281.996 177.864C281.861 177.987 281.688 178.048 281.477 178.048C281.269 178.048 281.098 177.987 280.963 177.864C280.828 177.738 280.761 177.575 280.761 177.376ZM285.292 177.064C285.526 177.064 285.716 177 285.863 176.871C286.009 176.742 286.085 176.57 286.091 176.356H287.282C287.279 176.679 287.191 176.975 287.019 177.244C286.846 177.511 286.608 177.719 286.307 177.868C286.008 178.015 285.677 178.088 285.313 178.088C284.634 178.088 284.098 177.873 283.705 177.442C283.312 177.008 283.116 176.411 283.116 175.649V175.565C283.116 174.833 283.311 174.249 283.701 173.812C284.09 173.375 284.625 173.157 285.305 173.157C285.899 173.157 286.375 173.327 286.733 173.667C287.093 174.004 287.276 174.454 287.282 175.016H286.091C286.085 174.77 286.009 174.571 285.863 174.418C285.716 174.263 285.523 174.186 285.283 174.186C284.987 174.186 284.763 174.294 284.61 174.511C284.461 174.725 284.386 175.073 284.386 175.557V175.688C284.386 176.178 284.461 176.529 284.61 176.743C284.76 176.957 284.987 177.064 285.292 177.064ZM287.81 175.579C287.81 175.107 287.9 174.687 288.082 174.317C288.264 173.948 288.524 173.663 288.864 173.46C289.207 173.258 289.604 173.157 290.055 173.157C290.697 173.157 291.22 173.354 291.624 173.746C292.031 174.139 292.258 174.672 292.305 175.346L292.314 175.671C292.314 176.4 292.11 176.986 291.703 177.429C291.296 177.868 290.75 178.088 290.064 178.088C289.378 178.088 288.831 177.868 288.42 177.429C288.013 176.989 287.81 176.392 287.81 175.636V175.579ZM289.08 175.671C289.08 176.122 289.165 176.468 289.334 176.708C289.504 176.945 289.748 177.064 290.064 177.064C290.372 177.064 290.612 176.947 290.785 176.712C290.958 176.475 291.044 176.097 291.044 175.579C291.044 175.136 290.958 174.793 290.785 174.55C290.612 174.307 290.369 174.186 290.055 174.186C289.745 174.186 289.504 174.307 289.334 174.55C289.165 174.791 289.08 175.164 289.08 175.671ZM294.287 173.245L294.327 173.777C294.664 173.364 295.119 173.157 295.693 173.157C296.306 173.157 296.726 173.399 296.955 173.882C297.289 173.399 297.765 173.157 298.383 173.157C298.898 173.157 299.282 173.308 299.534 173.61C299.786 173.909 299.912 174.36 299.912 174.963V178H298.638V174.968C298.638 174.698 298.585 174.502 298.479 174.379C298.374 174.253 298.188 174.19 297.921 174.19C297.541 174.19 297.277 174.372 297.13 174.735L297.135 178H295.865V174.972C295.865 174.697 295.811 174.498 295.702 174.375C295.594 174.251 295.409 174.19 295.148 174.19C294.788 174.19 294.527 174.339 294.366 174.638V178H293.096V173.245H294.287Z" fill="#666666"></path><rect x="101" y="249" width="274" height="10" rx="5" fill="#C4C4C4"></rect><rect x="101" y="300" width="274" height="10" rx="5" fill="#C4C4C4"></rect><rect x="101" y="325" width="274" height="10" rx="5" fill="#C4C4C4"></rect><rect x="101" y="274" width="274" height="11" rx="5.5" fill="#C4C4C4"></rect><rect x="107.83" y="384.419" width="83.3286" height="80.5965" fill="white"></rect><rect x="156.799" y="360.038" width="43.8692" height="46.3875" transform="rotate(41.1447 156.799 360.038)" fill="white"></rect><path d="M190.533 381.882L162.671 354.02C162.021 353.37 161.133 353 160.208 353H111.449C105.687 353 101 357.687 101 363.449V461.432C101 467.194 105.687 471.881 111.449 471.881H181.105C186.867 471.881 191.554 467.194 191.554 461.432V384.346C191.554 383.396 191.155 382.504 190.533 381.882ZM163.691 364.891L179.663 380.863H167.174C165.253 380.863 163.691 379.3 163.691 377.38V364.891ZM181.105 464.915H111.449C109.528 464.915 107.966 463.353 107.966 461.432V363.449C107.966 361.528 109.528 359.966 111.449 359.966H156.725V377.38C156.725 383.141 161.413 387.828 167.174 387.828H184.588V461.432C184.588 463.353 183.026 464.915 181.105 464.915Z" fill="#7B7A7A"></path><path d="M170 396H134C132.343 396 131 397.567 131 399.5C131 401.433 132.343 403 134 403H170C171.657 403 173 401.433 173 399.5C173 397.567 171.657 396 170 396Z" fill="#7B7A7A"></path><rect x="119" y="396" width="8" height="8" rx="3" fill="#7B7A7A"></rect><path d="M170 413H134C132.343 413 131 414.567 131 416.5C131 418.433 132.343 420 134 420H170C171.657 420 173 418.433 173 416.5C173 414.567 171.657 413 170 413Z" fill="#7B7A7A"></path><rect x="119" y="413" width="8" height="8" rx="3" fill="#7B7A7A"></rect><path d="M170 430H134C132.343 430 131 431.567 131 433.5C131 435.433 132.343 437 134 437H170C171.657 437 173 435.433 173 433.5C173 431.567 171.657 430 170 430Z" fill="#7B7A7A"></path><rect x="119" y="430" width="8" height="8" rx="3" fill="#7B7A7A"></rect><path d="M158 447H134C132.343 447 131 448.567 131 450.5C131 452.433 132.343 454 134 454H158C159.657 454 161 452.433 161 450.5C161 448.567 159.657 447 158 447Z" fill="#7B7A7A"></path><rect x="119" y="447" width="8" height="8" rx="3" fill="#7B7A7A"></rect><path d="M131 366C124.383 366 119 371.384 119 378C119 384.617 124.383 390 131 390C137.616 390 143 384.617 143 378C143 371.384 137.616 366 131 366ZM131 386.757C126.171 386.757 122.243 382.829 122.243 378C122.243 373.171 126.171 369.244 131 369.244C135.829 369.244 139.756 373.171 139.756 378C139.756 382.829 135.829 386.757 131 386.757Z" fill="#7B7A7A"></path><path d="M129.271 377.329L126.34 380.313L128.606 382.606L132.514 378.672V372.811H129.271V377.329Z" fill="#7B7A7A"></path><rect x="298" y="350" width="77" height="22" rx="5" fill="#EF710A"></rect><path d="M318.18 362.944C318.18 362.585 318.053 362.31 317.799 362.119C317.545 361.924 317.088 361.721 316.428 361.51C315.768 361.294 315.245 361.082 314.86 360.875C313.81 360.308 313.286 359.544 313.286 358.583C313.286 358.084 313.425 357.64 313.705 357.25C313.988 356.857 314.392 356.55 314.917 356.33C315.446 356.11 316.038 356 316.694 356C317.354 356 317.943 356.121 318.459 356.362C318.975 356.599 319.375 356.935 319.659 357.371C319.946 357.807 320.09 358.302 320.09 358.856H318.186C318.186 358.433 318.053 358.105 317.786 357.873C317.52 357.636 317.145 357.517 316.663 357.517C316.197 357.517 315.835 357.617 315.577 357.815C315.319 358.01 315.19 358.268 315.19 358.59C315.19 358.89 315.34 359.142 315.641 359.345C315.945 359.548 316.392 359.739 316.98 359.917C318.063 360.242 318.853 360.646 319.348 361.129C319.843 361.611 320.09 362.212 320.09 362.932C320.09 363.731 319.788 364.36 319.183 364.817C318.577 365.27 317.763 365.496 316.739 365.496C316.028 365.496 315.38 365.367 314.796 365.109C314.212 364.847 313.766 364.489 313.457 364.036C313.152 363.583 313 363.059 313 362.462H314.911C314.911 363.482 315.52 363.992 316.739 363.992C317.192 363.992 317.545 363.901 317.799 363.719C318.053 363.533 318.18 363.274 318.18 362.944Z" fill="white"></path><path d="M328.38 356.127V362.214C328.38 363.226 328.063 364.026 327.428 364.614C326.798 365.202 325.934 365.496 324.838 365.496C323.759 365.496 322.902 365.21 322.268 364.639C321.633 364.068 321.309 363.283 321.296 362.284V356.127H323.201V362.227C323.201 362.832 323.345 363.274 323.632 363.554C323.924 363.829 324.326 363.966 324.838 363.966C325.909 363.966 326.453 363.403 326.47 362.278V356.127H328.38Z" fill="white"></path><path d="M329.942 365.369V356.127H333.179C334.301 356.127 335.151 356.343 335.731 356.774C336.311 357.202 336.601 357.83 336.601 358.66C336.601 359.112 336.484 359.512 336.251 359.859C336.019 360.202 335.695 360.454 335.28 360.615C335.754 360.733 336.127 360.972 336.397 361.332C336.673 361.692 336.81 362.132 336.81 362.652C336.81 363.541 336.527 364.214 335.959 364.671C335.392 365.128 334.584 365.361 333.535 365.369H329.942ZM331.846 361.345V363.839H333.478C333.926 363.839 334.275 363.734 334.525 363.522C334.779 363.306 334.906 363.01 334.906 362.633C334.906 361.787 334.468 361.357 333.592 361.345H331.846ZM331.846 359.999H333.255C334.216 359.982 334.696 359.599 334.696 358.85C334.696 358.431 334.574 358.131 334.328 357.949C334.087 357.763 333.704 357.669 333.179 357.669H331.846V359.999Z" fill="white"></path><path d="M340.733 356.127L343.107 362.83L345.468 356.127H347.969V365.369H346.059V362.843L346.249 358.482L343.754 365.369H342.447L339.958 358.488L340.149 362.843V365.369H338.245V356.127H340.733Z" fill="white"></path><path d="M351.657 365.369H349.753V356.127H351.657V365.369Z" fill="white"></path><path d="M360.195 357.669H357.364V365.369H355.459V357.669H352.667V356.127H360.195V357.669Z" fill="white"></path></g><defs><clipPath id="clip0"><rect width="600" height="600" fill="white"></rect></clipPath><clipPath id="clip1"><rect width="10" height="10" fill="white" transform="translate(148 170)"></rect></clipPath></defs></svg>