<svg xmlns="http://www.w3.org/2000/svg" width="600" height="600" viewBox="0 0 600 600" fill="none"><rect width="600" height="600" fill="white"></rect><path d="M192 153.5C192 200.125 152.421 238 103.5 238C54.5792 238 15 200.125 15 153.5C15 106.875 54.5792 69 103.5 69C152.421 69 192 106.875 192 153.5Z" stroke="#FED328" stroke-opacity="0.5" stroke-width="2"></path><ellipse cx="114.5" cy="162.5" rx="89.5" ry="85.5" fill="#EF710A" fill-opacity="0.5"></ellipse><path d="M572 446.5C572 493.115 531.984 531 482.5 531C433.016 531 393 493.115 393 446.5C393 399.885 433.016 362 482.5 362C531.984 362 572 399.885 572 446.5Z" stroke="#EF710A" stroke-opacity="0.5" stroke-width="2"></path><ellipse cx="468.5" cy="438.5" rx="90.5" ry="85.5" fill="#FED328" fill-opacity="0.5"></ellipse><rect x="62" y="149" width="505" height="226" fill="white" stroke="#A1A1A1" stroke-width="2"></rect><rect x="315" y="195" width="64" height="57" rx="8" fill="#FFD37A"></rect><rect x="221" y="165" width="52" height="43" rx="8" fill="#EF710A" fill-opacity="0.6"></rect><rect x="122" y="213" width="58" height="53" rx="8" fill="#EF5E0A" fill-opacity="0.27"></rect><circle cx="510" cy="301" r="20" fill="#7B7A7A"></circle><path d="M554 369C554 357.861 549.364 347.178 541.113 339.302C532.861 331.425 521.67 327 510 327C498.33 327 487.139 331.425 478.887 339.302C470.636 347.178 466 357.861 466 369L510 369H554Z" fill="#7B7A7A"></path><line x1="43" y1="372" x2="586" y2="372" stroke="#7B7A7A" stroke-width="8"></line><line x1="43" y1="146" x2="586" y2="146" stroke="#7B7A7A" stroke-width="8"></line><rect x="138.5" y="302.484" width="322.452" height="180.942" rx="13.5" fill="white" stroke="#666666"></rect><rect x="143" y="288.526" width="313.452" height="165.789" rx="5" fill="white" stroke="#7B7A7A" stroke-width="10"></rect><rect x="174.916" y="222" width="249.62" height="142.389" rx="10" fill="white"></rect><rect x="176.916" y="224" width="245.62" height="138.389" rx="8" stroke="black" stroke-opacity="0.48" stroke-width="4"></rect><rect x="255.779" y="257.158" width="88.7734" height="59.7682" rx="3" fill="#FED328"></rect><path d="M318.44 287.373L290.801 303.698L290.67 271.278L318.44 287.373Z" fill="#EF710A"></path><circle cx="299.286" cy="471.181" r="4.3342" fill="white" stroke="#666666"></circle><line x1="244.352" y1="513.067" x2="354.22" y2="513.067" stroke="#666666" stroke-width="5"></line><line x1="204.421" y1="340.658" x2="204.421" y2="351.205" stroke="#333333"></line><line x1="137.997" y1="454.514" x2="418.38" y2="454.336" stroke="#7B7A7A" stroke-opacity="0.99" stroke-width="10"></line><rect x="285.405" y="484.546" width="27.7631" height="28.642" fill="#666666" stroke="#666666" stroke-width="3"></rect><rect x="436.841" y="442.615" width="53.6156" height="51.8577" fill="white"></rect><rect x="435.083" y="430.31" width="43.0683" height="50.9788" fill="white"></rect><rect x="435.083" y="424.157" width="35.1578" height="50.9788" fill="white"></rect><rect x="468.349" y="426.928" width="28.2265" height="29.8468" transform="rotate(41.1447 468.349 426.928)" fill="white"></rect><rect x="445.631" y="438.22" width="14.0631" height="9.66839" rx="3" fill="#EF710A"></rect><path d="M490.054 440.983L472.127 423.056C471.709 422.637 471.138 422.399 470.543 422.399H439.169C435.462 422.399 432.447 425.415 432.447 429.122V492.167C432.447 495.874 435.462 498.89 439.169 498.89H483.988C487.695 498.89 490.711 495.874 490.711 492.167V442.568C490.711 441.957 490.454 441.383 490.054 440.983ZM472.783 430.05L483.06 440.327H475.024C473.789 440.327 472.783 439.322 472.783 438.086V430.05ZM483.988 494.408H439.169C437.934 494.408 436.928 493.403 436.928 492.167V429.122C436.928 427.887 437.934 426.881 439.169 426.881H468.302V438.086C468.302 441.793 471.317 444.809 475.024 444.809H486.229V492.167C486.229 493.403 485.224 494.408 483.988 494.408Z" fill="#7B7A7A"></path><path d="M475.024 454.071H448.133C446.895 454.071 445.892 455.075 445.892 456.312C445.892 457.55 446.895 458.553 448.133 458.553H475.024C476.262 458.553 477.265 457.55 477.265 456.312C477.265 455.075 476.262 454.071 475.024 454.071Z" fill="#7B7A7A"></path><path d="M475.024 463.035H448.133C446.895 463.035 445.892 464.038 445.892 465.276C445.892 466.514 446.895 467.517 448.133 467.517H475.024C476.262 467.517 477.265 466.514 477.265 465.276C477.265 464.038 476.262 463.035 475.024 463.035Z" fill="#7B7A7A"></path><path d="M475.024 471.999H448.133C446.895 471.999 445.892 473.002 445.892 474.239C445.892 475.477 446.895 476.48 448.133 476.48H475.024C476.262 476.48 477.265 475.477 477.265 474.239C477.265 473.002 476.262 471.999 475.024 471.999Z" fill="#7B7A7A"></path><path d="M466.061 480.962H448.133C446.895 480.962 445.892 481.966 445.892 483.203C445.892 484.441 446.895 485.444 448.133 485.444H466.061C467.298 485.444 468.301 484.441 468.301 483.203C468.301 481.966 467.298 480.962 466.061 480.962Z" fill="#7B7A7A"></path><line x1="197.768" y1="345.431" x2="401.684" y2="345.431" stroke="#333333"></line></svg>