<svg xmlns="http://www.w3.org/2000/svg" width="227.812" height="52" viewBox="0 0 227.812 52"><path d="M12.526,0h0A12.526,12.526,0,0,0,0,12.526H0A12.526,12.526,0,0,0,12.526,25.051h0A12.526,12.526,0,0,0,25.051,12.526h0A12.526,12.526,0,0,0,12.526,0Zm7.516,12.526a7.517,7.517,0,0,1-7.514,7.516h0A7.517,7.517,0,0,1,5.01,12.527h0A7.517,7.517,0,0,1,12.524,5.01h0a7.517,7.517,0,0,1,7.516,7.514Z" fill="#ef710a"></path><path d="M25.051,191.38,12.526,203.9,0,191.38v-7.52l12.526,12.526L25.051,183.86Z" transform="translate(0 -158.809)" fill="#ef710a"></path><path d="M257.4,77.224a15.862,15.862,0,1,1,15.861,15.861A15.863,15.863,0,0,1,257.4,77.224Zm26.728,0A10.867,10.867,0,1,0,273.261,88.09,10.708,10.708,0,0,0,284.128,77.224Z" transform="translate(-222.329 -53)"></path><path d="M531.43,22.06h4.891V58.728H531.43Z" transform="translate(-459.022 -19.054)"></path><path d="M631.711,153.946v4.017a3.4,3.4,0,0,1-1.647.409,6.1,6.1,0,0,1-5.562-3.45,9.5,9.5,0,0,1-7.357,3.45,10.714,10.714,0,0,1,0-21.423,9.711,9.711,0,0,1,6.644,2.575v-2.16h4.88V151.63c0,1.8.928,2.316,1.907,2.316Zm-7.776-6.284a6.164,6.164,0,1,0-1.805,4.375A6.18,6.18,0,0,0,623.935,147.662Z" transform="translate(-524.028 -118.289)"></path><path d="M849.524,88.674H836.913l-2.213,6.54h-5.45L840.423,64.33h5.611l11.172,30.884h-5.45Zm-1.442-4.427L843.25,69.836l-4.844,14.413Z" transform="translate(-716.264 -55.565)" fill="#ef710a"></path><path d="M1027,153.51l3.964-1.805a3.914,3.914,0,0,0,3.758,2.316c1.442,0,2.574-.721,2.574-2.007,0-1.184-.978-1.751-3.134-2.626-3.088-1.132-6.131-2.676-6.131-6.33,0-3.6,2.882-6.228,6.743-6.228a7.881,7.881,0,0,1,6.486,3.134l-3.086,2.532a3.593,3.593,0,0,0-3.089-1.544c-1.39,0-2.213.669-2.213,1.853,0,1.286.978,1.7,2.985,2.522,2.78,1.132,6.074,2.676,6.074,6.588,0,3.706-2.933,6.332-7.052,6.332C1031.427,158.245,1027.978,156.337,1027,153.51Z" transform="translate(-887.071 -118.187)" fill="#ef710a"></path><path d="M1178.029,147.564a10.515,10.515,0,0,1-10.449,10.707,9.7,9.7,0,0,1-6.64-2.574v14.515h-4.89V137.27h4.89v2.161a9.7,9.7,0,0,1,6.64-2.572A10.514,10.514,0,0,1,1178.029,147.564Zm-4.89,0a6.131,6.131,0,1,0-1.8,4.382A6.178,6.178,0,0,0,1173.139,147.564Z" transform="translate(-998.538 -118.212)" fill="#ef710a"></path><path d="M1340.25,73.295a2.935,2.935,0,1,1,2.933,2.883A2.934,2.934,0,0,1,1340.25,73.295Zm.515,6.54h4.838v20.587h-4.842Z" transform="translate(-1157.64 -60.773)" fill="#ef710a"></path><path d="M1429.658,137.011v4.581a8.553,8.553,0,0,0-1.75-.206,5.893,5.893,0,0,0-6.228,6.022v10.449h-4.89v-20.59h4.89V140.1a7.611,7.611,0,0,1,6.33-3.243,8.475,8.475,0,0,1,1.647.155Z" transform="translate(-1223.752 -118.209)" fill="#ef710a"></path><path d="M1533.283,148.329H1516.4a5.988,5.988,0,0,0,6.131,5.868,5.762,5.762,0,0,0,5.559-3.552h4.89c-1.189,4.483-5.153,7.616-10.455,7.616-6.383,0-11.066-4.529-11.066-10.707s4.735-10.705,11.015-10.705a10.455,10.455,0,0,1,10.86,10.6Zm-16.471-3.5h11.173a5.562,5.562,0,0,0-5.45-3.86A5.916,5.916,0,0,0,1516.812,144.829Z" transform="translate(-1305.523 -118.204)" fill="#ef710a"></path></svg>