<svg xmlns="http://www.w3.org/2000/svg" width="668" height="600" viewBox="0 0 668 600" fill="none"><rect width="668" height="600" fill="white"></rect><path d="M613 406.5C613 453.115 572.984 491 523.5 491C474.016 491 434 453.115 434 406.5C434 359.885 474.016 322 523.5 322C572.984 322 613 359.885 613 406.5Z" stroke="#EF710A" stroke-opacity="0.5" stroke-width="2"></path><ellipse cx="509.5" cy="398.5" rx="90.5" ry="85.5" fill="#FED328" fill-opacity="0.5"></ellipse><path d="M233 193.5C233 240.125 193.421 278 144.5 278C95.5792 278 56 240.125 56 193.5C56 146.875 95.5792 109 144.5 109C193.421 109 233 146.875 233 193.5Z" stroke="#FED328" stroke-opacity="0.5" stroke-width="2"></path><ellipse cx="155.5" cy="202.5" rx="89.5" ry="85.5" fill="#EF710A" fill-opacity="0.5"></ellipse><rect x="108.5" y="155.5" width="425" height="232" rx="2.5" fill="white" stroke="#7B7A7A" stroke-width="5"></rect><rect x="135" y="176" width="59" height="27" rx="5" fill="#323232"></rect><circle cx="545" cy="369" r="3" fill="#0FA9FF"></circle><circle cx="545" cy="369" r="3" fill="#0FA9FF"></circle><rect x="173.5" y="143.5" width="295" height="19" rx="4.5" fill="white" stroke="#7B7A7A"></rect><g clip-path="url(#clip0)"><path d="M189.917 152.583H184.083C183.623 152.583 183.25 152.957 183.25 153.417V156.333C183.25 156.794 183.623 157.167 184.083 157.167H189.917C190.377 157.167 190.75 156.794 190.75 156.333V153.417C190.75 152.957 190.377 152.583 189.917 152.583Z" stroke="#3F9B06" stroke-width="2" stroke-linecap="round" stroke-linejoin="round"></path><path d="M184.917 152.583V150.917C184.917 150.364 185.136 149.834 185.527 149.444C185.917 149.053 186.447 148.833 187 148.833C187.552 148.833 188.082 149.053 188.473 149.444C188.864 149.834 189.083 150.364 189.083 150.917V152.583" stroke="#3F9B06" stroke-width="2" stroke-linecap="round" stroke-linejoin="round"></path></g><path d="M202.063 154.686C202.063 154.531 201.985 154.409 201.83 154.321C201.678 154.23 201.432 154.15 201.092 154.08C199.961 153.842 199.396 153.362 199.396 152.638C199.396 152.216 199.57 151.865 199.918 151.583C200.27 151.299 200.729 151.157 201.294 151.157C201.897 151.157 202.379 151.299 202.74 151.583C203.103 151.868 203.285 152.237 203.285 152.691H202.015C202.015 152.509 201.956 152.36 201.839 152.243C201.722 152.123 201.539 152.062 201.29 152.062C201.076 152.062 200.91 152.111 200.793 152.208C200.676 152.304 200.617 152.427 200.617 152.577C200.617 152.717 200.683 152.832 200.815 152.919C200.95 153.004 201.175 153.079 201.492 153.144C201.808 153.205 202.075 153.275 202.292 153.354C202.962 153.601 203.298 154.027 203.298 154.633C203.298 155.067 203.112 155.418 202.74 155.688C202.368 155.955 201.887 156.088 201.298 156.088C200.9 156.088 200.545 156.018 200.235 155.877C199.927 155.733 199.686 155.539 199.51 155.292C199.334 155.043 199.246 154.775 199.246 154.488H200.45C200.462 154.714 200.545 154.887 200.701 155.007C200.856 155.127 201.064 155.187 201.325 155.187C201.568 155.187 201.751 155.142 201.874 155.051C202 154.957 202.063 154.835 202.063 154.686ZM206.308 156.088C205.611 156.088 205.042 155.874 204.603 155.446C204.167 155.019 203.948 154.449 203.948 153.737V153.614C203.948 153.136 204.041 152.71 204.225 152.335C204.41 151.957 204.67 151.667 205.007 151.465C205.347 151.26 205.734 151.157 206.167 151.157C206.818 151.157 207.329 151.362 207.701 151.772C208.076 152.183 208.264 152.764 208.264 153.517V154.036H205.236C205.277 154.346 205.4 154.595 205.605 154.783C205.813 154.97 206.075 155.064 206.392 155.064C206.881 155.064 207.263 154.887 207.539 154.532L208.163 155.231C207.972 155.5 207.714 155.711 207.389 155.864C207.064 156.013 206.704 156.088 206.308 156.088ZM206.163 152.186C205.911 152.186 205.706 152.271 205.548 152.44C205.393 152.61 205.293 152.854 205.249 153.17H207.016V153.069C207.01 152.788 206.934 152.571 206.787 152.418C206.641 152.263 206.433 152.186 206.163 152.186ZM210.966 155.064C211.201 155.064 211.391 155 211.538 154.871C211.684 154.742 211.76 154.57 211.766 154.356H212.957C212.954 154.679 212.866 154.975 212.693 155.244C212.521 155.511 212.283 155.719 211.981 155.868C211.683 156.015 211.352 156.088 210.988 156.088C210.309 156.088 209.772 155.873 209.38 155.442C208.987 155.008 208.791 154.411 208.791 153.649V153.565C208.791 152.833 208.986 152.249 209.375 151.812C209.765 151.375 210.3 151.157 210.979 151.157C211.574 151.157 212.05 151.327 212.408 151.667C212.768 152.004 212.951 152.454 212.957 153.016H211.766C211.76 152.77 211.684 152.571 211.538 152.418C211.391 152.263 211.198 152.186 210.958 152.186C210.662 152.186 210.438 152.294 210.285 152.511C210.136 152.725 210.061 153.073 210.061 153.557V153.688C210.061 154.178 210.136 154.529 210.285 154.743C210.435 154.957 210.662 155.064 210.966 155.064ZM216.53 155.517C216.216 155.897 215.783 156.088 215.229 156.088C214.719 156.088 214.33 155.941 214.06 155.648C213.793 155.355 213.657 154.926 213.651 154.361V151.245H214.921V154.317C214.921 154.812 215.147 155.06 215.598 155.06C216.029 155.06 216.325 154.91 216.486 154.611V151.245H217.76V156H216.565L216.53 155.517ZM221.39 152.436C221.217 152.413 221.065 152.401 220.933 152.401C220.453 152.401 220.138 152.563 219.988 152.889V156H218.718V151.245H219.918L219.953 151.812C220.208 151.375 220.561 151.157 221.012 151.157C221.153 151.157 221.285 151.176 221.408 151.214L221.39 152.436ZM224.106 156.088C223.409 156.088 222.84 155.874 222.401 155.446C221.964 155.019 221.746 154.449 221.746 153.737V153.614C221.746 153.136 221.838 152.71 222.023 152.335C222.208 151.957 222.468 151.667 222.805 151.465C223.145 151.26 223.532 151.157 223.965 151.157C224.616 151.157 225.127 151.362 225.499 151.772C225.874 152.183 226.062 152.764 226.062 153.517V154.036H223.034C223.075 154.346 223.198 154.595 223.403 154.783C223.611 154.97 223.873 155.064 224.189 155.064C224.679 155.064 225.061 154.887 225.336 154.532L225.96 155.231C225.77 155.5 225.512 155.711 225.187 155.864C224.862 156.013 224.501 156.088 224.106 156.088ZM223.961 152.186C223.709 152.186 223.504 152.271 223.346 152.44C223.19 152.61 223.091 152.854 223.047 153.17H224.813V153.069C224.808 152.788 224.731 152.571 224.585 152.418C224.438 152.263 224.23 152.186 223.961 152.186ZM230.069 157.187H229.3V149.602H230.069V157.187ZM234.785 151.764C235.122 151.359 235.545 151.157 236.055 151.157C237.086 151.157 237.609 151.756 237.624 152.955V156H236.354V152.99C236.354 152.717 236.295 152.517 236.178 152.388C236.061 152.256 235.866 152.19 235.593 152.19C235.221 152.19 234.952 152.333 234.785 152.621V156H233.515V149.25H234.785V151.764ZM240.102 150.076V151.245H240.915V152.177H240.102V154.55C240.102 154.726 240.136 154.852 240.203 154.928C240.271 155.004 240.399 155.042 240.59 155.042C240.73 155.042 240.855 155.032 240.963 155.011V155.974C240.714 156.05 240.458 156.088 240.194 156.088C239.304 156.088 238.85 155.638 238.832 154.739V152.177H238.138V151.245H238.832V150.076H240.102ZM243.143 150.076V151.245H243.956V152.177H243.143V154.55C243.143 154.726 243.177 154.852 243.244 154.928C243.312 155.004 243.44 155.042 243.631 155.042C243.771 155.042 243.896 155.032 244.004 155.011V155.974C243.755 156.05 243.499 156.088 243.235 156.088C242.345 156.088 241.891 155.638 241.873 154.739V152.177H241.179V151.245H241.873V150.076H243.143ZM248.944 153.667C248.944 154.399 248.777 154.986 248.443 155.429C248.112 155.868 247.664 156.088 247.098 156.088C246.618 156.088 246.229 155.921 245.934 155.587V157.828H244.664V151.245H245.841L245.885 151.711C246.193 151.342 246.594 151.157 247.089 151.157C247.675 151.157 248.131 151.374 248.456 151.808C248.781 152.241 248.944 152.839 248.944 153.601V153.667ZM247.674 153.574C247.674 153.132 247.595 152.791 247.437 152.55C247.281 152.31 247.054 152.19 246.755 152.19C246.357 152.19 246.083 152.342 245.934 152.647V154.594C246.089 154.907 246.366 155.064 246.764 155.064C247.371 155.064 247.674 154.567 247.674 153.574ZM252.31 154.686C252.31 154.531 252.232 154.409 252.077 154.321C251.925 154.23 251.679 154.15 251.339 154.08C250.208 153.842 249.643 153.362 249.643 152.638C249.643 152.216 249.817 151.865 250.166 151.583C250.517 151.299 250.976 151.157 251.541 151.157C252.145 151.157 252.626 151.299 252.987 151.583C253.35 151.868 253.532 152.237 253.532 152.691H252.262C252.262 152.509 252.203 152.36 252.086 152.243C251.969 152.123 251.786 152.062 251.537 152.062C251.323 152.062 251.157 152.111 251.04 152.208C250.923 152.304 250.864 152.427 250.864 152.577C250.864 152.717 250.93 152.832 251.062 152.919C251.197 153.004 251.422 153.079 251.739 153.144C252.055 153.205 252.322 153.275 252.539 153.354C253.209 153.601 253.545 154.027 253.545 154.633C253.545 155.067 253.359 155.418 252.987 155.688C252.615 155.955 252.134 156.088 251.545 156.088C251.147 156.088 250.792 156.018 250.482 155.877C250.174 155.733 249.933 155.539 249.757 155.292C249.581 155.043 249.493 154.775 249.493 154.488H250.697C250.709 154.714 250.792 154.887 250.948 155.007C251.103 155.127 251.311 155.187 251.572 155.187C251.815 155.187 251.998 155.142 252.121 155.051C252.247 154.957 252.31 154.835 252.31 154.686ZM254.428 155.376C254.428 155.174 254.496 155.01 254.63 154.884C254.768 154.758 254.939 154.695 255.145 154.695C255.353 154.695 255.524 154.758 255.659 154.884C255.796 155.01 255.865 155.174 255.865 155.376C255.865 155.575 255.798 155.738 255.663 155.864C255.528 155.987 255.355 156.048 255.145 156.048C254.937 156.048 254.765 155.987 254.63 155.864C254.496 155.738 254.428 155.575 254.428 155.376ZM254.428 151.777C254.428 151.575 254.496 151.411 254.63 151.285C254.768 151.159 254.939 151.096 255.145 151.096C255.353 151.096 255.524 151.159 255.659 151.285C255.796 151.411 255.865 151.575 255.865 151.777C255.865 151.976 255.798 152.139 255.663 152.265C255.528 152.388 255.355 152.449 255.145 152.449C254.937 152.449 254.765 152.388 254.63 152.265C254.496 152.139 254.428 151.976 254.428 151.777ZM257.307 156.549H256.362L258.717 149.602H259.662L257.307 156.549ZM259.583 156.549H258.638L260.994 149.602H261.938L259.583 156.549ZM266.685 154.273L267.309 151.245H268.535L267.322 156H266.258L265.357 153.007L264.457 156H263.397L262.185 151.245H263.411L264.03 154.269L264.9 151.245H265.819L266.685 154.273ZM273.303 154.273L273.927 151.245H275.153L273.94 156H272.876L271.976 153.007L271.075 156H270.016L268.803 151.245H270.029L270.648 154.269L271.519 151.245H272.437L273.303 154.273ZM279.921 154.273L280.545 151.245H281.771L280.558 156H279.495L278.594 153.007L277.693 156H276.634L275.421 151.245H276.647L277.267 154.269L278.137 151.245H279.055L279.921 154.273ZM281.925 155.376C281.925 155.174 281.992 155.01 282.127 154.884C282.265 154.758 282.436 154.695 282.641 154.695C282.849 154.695 283.021 154.758 283.155 154.884C283.293 155.01 283.362 155.174 283.362 155.376C283.362 155.575 283.294 155.738 283.16 155.864C283.025 155.987 282.852 156.048 282.641 156.048C282.433 156.048 282.262 155.987 282.127 155.864C281.992 155.738 281.925 155.575 281.925 155.376ZM284.28 153.587C284.28 152.846 284.446 152.256 284.777 151.816C285.111 151.377 285.566 151.157 286.144 151.157C286.606 151.157 286.989 151.33 287.291 151.676V149.25H288.565V156H287.418L287.356 155.495C287.04 155.89 286.633 156.088 286.135 156.088C285.575 156.088 285.125 155.868 284.786 155.429C284.449 154.986 284.28 154.373 284.28 153.587ZM285.55 153.68C285.55 154.125 285.628 154.466 285.783 154.704C285.938 154.941 286.164 155.06 286.46 155.06C286.853 155.06 287.129 154.894 287.291 154.563V152.687C287.132 152.355 286.858 152.19 286.469 152.19C285.856 152.19 285.55 152.687 285.55 153.68ZM289.352 153.579C289.352 153.107 289.442 152.687 289.624 152.317C289.806 151.948 290.066 151.663 290.406 151.46C290.749 151.258 291.146 151.157 291.597 151.157C292.239 151.157 292.762 151.354 293.166 151.746C293.573 152.139 293.8 152.672 293.847 153.346L293.856 153.671C293.856 154.4 293.652 154.986 293.245 155.429C292.838 155.868 292.292 156.088 291.606 156.088C290.92 156.088 290.373 155.868 289.962 155.429C289.555 154.989 289.352 154.392 289.352 153.636V153.579ZM290.622 153.671C290.622 154.122 290.707 154.468 290.876 154.708C291.046 154.945 291.29 155.064 291.606 155.064C291.914 155.064 292.154 154.947 292.327 154.712C292.5 154.475 292.586 154.097 292.586 153.579C292.586 153.136 292.5 152.793 292.327 152.55C292.154 152.307 291.911 152.186 291.597 152.186C291.287 152.186 291.046 152.307 290.876 152.55C290.707 152.791 290.622 153.164 290.622 153.671ZM295.829 151.245L295.869 151.777C296.206 151.364 296.661 151.157 297.235 151.157C297.848 151.157 298.268 151.399 298.497 151.882C298.831 151.399 299.307 151.157 299.925 151.157C300.44 151.157 300.824 151.308 301.076 151.61C301.328 151.909 301.454 152.36 301.454 152.963V156H300.18V152.968C300.18 152.698 300.127 152.502 300.021 152.379C299.916 152.253 299.73 152.19 299.463 152.19C299.083 152.19 298.819 152.372 298.672 152.735L298.677 156H297.407V152.972C297.407 152.697 297.353 152.498 297.244 152.375C297.136 152.251 296.951 152.19 296.69 152.19C296.33 152.19 296.069 152.339 295.908 152.638V156H294.638V151.245H295.829ZM305.189 156C305.131 155.886 305.088 155.744 305.062 155.574C304.754 155.917 304.354 156.088 303.862 156.088C303.396 156.088 303.01 155.953 302.702 155.684C302.397 155.414 302.245 155.074 302.245 154.664C302.245 154.16 302.431 153.773 302.803 153.504C303.178 153.234 303.719 153.098 304.425 153.095H305.009V152.823C305.009 152.603 304.952 152.427 304.838 152.295C304.727 152.164 304.549 152.098 304.306 152.098C304.092 152.098 303.924 152.149 303.801 152.251C303.681 152.354 303.621 152.495 303.621 152.673H302.351C302.351 152.398 302.436 152.143 302.605 151.909C302.775 151.674 303.016 151.491 303.326 151.359C303.637 151.225 303.985 151.157 304.372 151.157C304.958 151.157 305.422 151.305 305.765 151.601C306.111 151.894 306.284 152.307 306.284 152.84V154.901C306.287 155.353 306.35 155.694 306.473 155.925V156H305.189ZM304.139 155.117C304.327 155.117 304.5 155.076 304.658 154.994C304.816 154.909 304.933 154.796 305.009 154.655V153.838H304.535C303.899 153.838 303.561 154.058 303.52 154.497L303.515 154.572C303.515 154.73 303.571 154.86 303.682 154.963C303.793 155.065 303.946 155.117 304.139 155.117ZM308.6 156H307.325V151.245H308.6V156ZM307.25 150.015C307.25 149.824 307.313 149.667 307.439 149.544C307.568 149.421 307.743 149.36 307.962 149.36C308.179 149.36 308.352 149.421 308.481 149.544C308.61 149.667 308.674 149.824 308.674 150.015C308.674 150.208 308.608 150.366 308.477 150.489C308.348 150.612 308.176 150.674 307.962 150.674C307.749 150.674 307.576 150.612 307.444 150.489C307.315 150.366 307.25 150.208 307.25 150.015ZM310.819 151.245L310.858 151.794C311.198 151.37 311.654 151.157 312.225 151.157C312.729 151.157 313.104 151.305 313.35 151.601C313.596 151.897 313.722 152.339 313.728 152.928V156H312.458V152.959C312.458 152.689 312.399 152.495 312.282 152.375C312.165 152.251 311.97 152.19 311.698 152.19C311.34 152.19 311.072 152.342 310.894 152.647V156H309.624V151.245H310.819ZM314.761 155.376C314.761 155.174 314.828 155.01 314.963 154.884C315.101 154.758 315.272 154.695 315.477 154.695C315.685 154.695 315.856 154.758 315.991 154.884C316.129 155.01 316.198 155.174 316.198 155.376C316.198 155.575 316.13 155.738 315.996 155.864C315.861 155.987 315.688 156.048 315.477 156.048C315.269 156.048 315.098 155.987 314.963 155.864C314.828 155.738 314.761 155.575 314.761 155.376ZM319.292 155.064C319.526 155.064 319.716 155 319.863 154.871C320.009 154.742 320.085 154.57 320.091 154.356H321.282C321.279 154.679 321.191 154.975 321.019 155.244C320.846 155.511 320.608 155.719 320.307 155.868C320.008 156.015 319.677 156.088 319.313 156.088C318.634 156.088 318.098 155.873 317.705 155.442C317.312 155.008 317.116 154.411 317.116 153.649V153.565C317.116 152.833 317.311 152.249 317.701 151.812C318.09 151.375 318.625 151.157 319.305 151.157C319.899 151.157 320.375 151.327 320.733 151.667C321.093 152.004 321.276 152.454 321.282 153.016H320.091C320.085 152.77 320.009 152.571 319.863 152.418C319.716 152.263 319.523 152.186 319.283 152.186C318.987 152.186 318.763 152.294 318.61 152.511C318.461 152.725 318.386 153.073 318.386 153.557V153.688C318.386 154.178 318.461 154.529 318.61 154.743C318.76 154.957 318.987 155.064 319.292 155.064ZM321.81 153.579C321.81 153.107 321.9 152.687 322.082 152.317C322.264 151.948 322.524 151.663 322.864 151.46C323.207 151.258 323.604 151.157 324.055 151.157C324.697 151.157 325.22 151.354 325.624 151.746C326.031 152.139 326.258 152.672 326.305 153.346L326.314 153.671C326.314 154.4 326.11 154.986 325.703 155.429C325.296 155.868 324.75 156.088 324.064 156.088C323.378 156.088 322.831 155.868 322.42 155.429C322.013 154.989 321.81 154.392 321.81 153.636V153.579ZM323.08 153.671C323.08 154.122 323.165 154.468 323.334 154.708C323.504 154.945 323.748 155.064 324.064 155.064C324.372 155.064 324.612 154.947 324.785 154.712C324.958 154.475 325.044 154.097 325.044 153.579C325.044 153.136 324.958 152.793 324.785 152.55C324.612 152.307 324.369 152.186 324.055 152.186C323.745 152.186 323.504 152.307 323.334 152.55C323.165 152.791 323.08 153.164 323.08 153.671ZM328.287 151.245L328.327 151.777C328.664 151.364 329.119 151.157 329.693 151.157C330.306 151.157 330.726 151.399 330.955 151.882C331.289 151.399 331.765 151.157 332.383 151.157C332.898 151.157 333.282 151.308 333.534 151.61C333.786 151.909 333.912 152.36 333.912 152.963V156H332.638V152.968C332.638 152.698 332.585 152.502 332.479 152.379C332.374 152.253 332.188 152.19 331.921 152.19C331.541 152.19 331.277 152.372 331.13 152.735L331.135 156H329.865V152.972C329.865 152.697 329.811 152.498 329.702 152.375C329.594 152.251 329.409 152.19 329.148 152.19C328.788 152.19 328.527 152.339 328.366 152.638V156H327.096V151.245H328.287Z" fill="#666666"></path><rect x="135" y="224" width="13" height="13" rx="2" fill="#C4C4C4"></rect><rect x="160" y="224" width="35" height="13" rx="2" fill="#C4C4C4"></rect><rect x="160" y="244" width="87" height="13" rx="2" fill="#C4C4C4"></rect><rect x="160" y="264" width="43" height="13" rx="2" fill="#C4C4C4"></rect><rect x="135" y="244" width="13" height="13" rx="2" fill="#C4C4C4"></rect><rect x="135" y="264" width="13" height="13" rx="2" fill="#C4C4C4"></rect><rect x="135" y="312" width="21" height="64" rx="2" fill="#A1A1A1"></rect><rect x="160" y="298" width="21" height="78" rx="2" fill="#A1A1A1"></rect><rect x="186" y="334" width="21" height="42" rx="2" fill="#A1A1A1"></rect><rect x="212" y="317" width="21" height="59" rx="2" fill="#A1A1A1"></rect><path d="M317 276L349 243L390 269L463 205" stroke="#7B7A7A" stroke-width="3"></path><circle cx="317" cy="277" r="10" fill="#EF710A"></circle><circle cx="350" cy="243" r="10" fill="#FFD37A"></circle><circle cx="390" cy="267" r="10" fill="#FED328"></circle><circle cx="460" cy="214" r="30" fill="#EF710A"></circle><path d="M486 340.5H539.5L553 350.5L565.5 368.5L566.5 396.5V446H486V340.5Z" fill="white"></path><path d="M568.533 362.882L540.671 335.02C540.021 334.37 539.133 334 538.208 334H489.449C483.687 334 479 338.687 479 344.449V442.432C479 448.194 483.687 452.881 489.449 452.881H559.105C564.867 452.881 569.554 448.194 569.554 442.432V365.346C569.554 364.396 569.155 363.504 568.533 362.882ZM541.691 345.891L557.663 361.863H545.174C543.253 361.863 541.691 360.3 541.691 358.38V345.891ZM559.105 445.915H489.449C487.528 445.915 485.966 444.353 485.966 442.432V344.449C485.966 342.528 487.528 340.966 489.449 340.966H534.725V358.38C534.725 364.141 539.413 368.828 545.174 368.828H562.588V442.432C562.588 444.353 561.026 445.915 559.105 445.915Z" fill="#7B7A7A"></path><path d="M548 377H512C510.343 377 509 378.567 509 380.5C509 382.433 510.343 384 512 384H548C549.657 384 551 382.433 551 380.5C551 378.567 549.657 377 548 377Z" fill="#7B7A7A"></path><rect x="497" y="377" width="8" height="8" rx="3" fill="#7B7A7A"></rect><path d="M548 394H512C510.343 394 509 395.567 509 397.5C509 399.433 510.343 401 512 401H548C549.657 401 551 399.433 551 397.5C551 395.567 549.657 394 548 394Z" fill="#7B7A7A"></path><rect x="497" y="394" width="8" height="8" rx="3" fill="#7B7A7A"></rect><path d="M548 411H512C510.343 411 509 412.567 509 414.5C509 416.433 510.343 418 512 418H548C549.657 418 551 416.433 551 414.5C551 412.567 549.657 411 548 411Z" fill="#7B7A7A"></path><rect x="497" y="411" width="8" height="8" rx="3" fill="#7B7A7A"></rect><path d="M536 428H512C510.343 428 509 429.567 509 431.5C509 433.433 510.343 435 512 435H536C537.657 435 539 433.433 539 431.5C539 429.567 537.657 428 536 428Z" fill="#7B7A7A"></path><rect x="497" y="428" width="8" height="8" rx="3" fill="#7B7A7A"></rect><defs><clipPath id="clip0"><rect width="10" height="10" fill="white" transform="translate(182 148)"></rect></clipPath></defs></svg>