<svg xmlns="http://www.w3.org/2000/svg" width="600" height="600" viewBox="0 0 600 600" fill="none"><g clip-path="url(#clip0)"><rect width="600" height="600" fill="white"></rect><path d="M579 406.5C579 453.115 538.984 491 489.5 491C440.016 491 400 453.115 400 406.5C400 359.885 440.016 322 489.5 322C538.984 322 579 359.885 579 406.5Z" stroke="#EF710A" stroke-opacity="0.5" stroke-width="2"></path><ellipse cx="475.5" cy="398.5" rx="90.5" ry="85.5" fill="#FED328" fill-opacity="0.5"></ellipse><path d="M199 193.5C199 240.125 159.421 278 110.5 278C61.5792 278 22 240.125 22 193.5C22 146.875 61.5792 109 110.5 109C159.421 109 199 146.875 199 193.5Z" stroke="#FED328" stroke-opacity="0.5" stroke-width="2"></path><ellipse cx="121.5" cy="202.5" rx="89.5" ry="85.5" fill="#EF710A" fill-opacity="0.5"></ellipse><rect x="74.5" y="155.5" width="425" height="232" rx="2.5" fill="white" stroke="#7B7A7A" stroke-width="5"></rect><rect x="101" y="176" width="59" height="27" rx="5" fill="#323232"></rect><rect x="101" y="216" width="101" height="54" rx="5" fill="#EF710A"></rect><rect x="229" y="215" width="101" height="54" rx="5" fill="#FFD37A"></rect><rect x="361" y="216" width="101" height="54" rx="5" fill="#F6B215" fill-opacity="0.31"></rect><circle cx="511" cy="369" r="3" fill="#0FA9FF"></circle><circle cx="511" cy="369" r="3" fill="#0FA9FF"></circle><rect x="139.5" y="143.5" width="295" height="19" rx="4.5" fill="white" stroke="#7B7A7A"></rect><g clip-path="url(#clip1)"><path d="M155.917 152.583H150.083C149.623 152.583 149.25 152.957 149.25 153.417V156.333C149.25 156.794 149.623 157.167 150.083 157.167H155.917C156.377 157.167 156.75 156.794 156.75 156.333V153.417C156.75 152.957 156.377 152.583 155.917 152.583Z" stroke="#3F9B06" stroke-width="2" stroke-linecap="round" stroke-linejoin="round"></path><path d="M150.917 152.583V150.917C150.917 150.364 151.136 149.834 151.527 149.444C151.918 149.053 152.448 148.833 153 148.833C153.553 148.833 154.083 149.053 154.473 149.444C154.864 149.834 155.083 150.364 155.083 150.917V152.583" stroke="#3F9B06" stroke-width="2" stroke-linecap="round" stroke-linejoin="round"></path></g><path d="M168.063 154.686C168.063 154.531 167.985 154.409 167.83 154.321C167.678 154.23 167.432 154.15 167.092 154.08C165.961 153.842 165.396 153.362 165.396 152.638C165.396 152.216 165.57 151.865 165.918 151.583C166.27 151.299 166.729 151.157 167.294 151.157C167.897 151.157 168.379 151.299 168.74 151.583C169.103 151.868 169.285 152.237 169.285 152.691H168.015C168.015 152.509 167.956 152.36 167.839 152.243C167.722 152.123 167.539 152.062 167.29 152.062C167.076 152.062 166.91 152.111 166.793 152.208C166.676 152.304 166.617 152.427 166.617 152.577C166.617 152.717 166.683 152.832 166.815 152.919C166.95 153.004 167.175 153.079 167.492 153.144C167.808 153.205 168.075 153.275 168.292 153.354C168.962 153.601 169.298 154.027 169.298 154.633C169.298 155.067 169.112 155.418 168.74 155.688C168.368 155.955 167.887 156.088 167.298 156.088C166.9 156.088 166.545 156.018 166.235 155.877C165.927 155.733 165.686 155.539 165.51 155.292C165.334 155.043 165.246 154.775 165.246 154.488H166.45C166.462 154.714 166.545 154.887 166.701 155.007C166.856 155.127 167.064 155.187 167.325 155.187C167.568 155.187 167.751 155.142 167.874 155.051C168 154.957 168.063 154.835 168.063 154.686ZM172.308 156.088C171.611 156.088 171.042 155.874 170.603 155.446C170.167 155.019 169.948 154.449 169.948 153.737V153.614C169.948 153.136 170.041 152.71 170.225 152.335C170.41 151.957 170.67 151.667 171.007 151.465C171.347 151.26 171.734 151.157 172.167 151.157C172.818 151.157 173.329 151.362 173.701 151.772C174.076 152.183 174.264 152.764 174.264 153.517V154.036H171.236C171.277 154.346 171.4 154.595 171.605 154.783C171.813 154.97 172.075 155.064 172.392 155.064C172.881 155.064 173.263 154.887 173.539 154.532L174.163 155.231C173.972 155.5 173.714 155.711 173.389 155.864C173.064 156.013 172.704 156.088 172.308 156.088ZM172.163 152.186C171.911 152.186 171.706 152.271 171.548 152.44C171.393 152.61 171.293 152.854 171.249 153.17H173.016V153.069C173.01 152.788 172.934 152.571 172.787 152.418C172.641 152.263 172.433 152.186 172.163 152.186ZM176.966 155.064C177.201 155.064 177.391 155 177.538 154.871C177.684 154.742 177.76 154.57 177.766 154.356H178.957C178.954 154.679 178.866 154.975 178.693 155.244C178.521 155.511 178.283 155.719 177.981 155.868C177.683 156.015 177.352 156.088 176.988 156.088C176.309 156.088 175.772 155.873 175.38 155.442C174.987 155.008 174.791 154.411 174.791 153.649V153.565C174.791 152.833 174.986 152.249 175.375 151.812C175.765 151.375 176.3 151.157 176.979 151.157C177.574 151.157 178.05 151.327 178.408 151.667C178.768 152.004 178.951 152.454 178.957 153.016H177.766C177.76 152.77 177.684 152.571 177.538 152.418C177.391 152.263 177.198 152.186 176.958 152.186C176.662 152.186 176.438 152.294 176.285 152.511C176.136 152.725 176.061 153.073 176.061 153.557V153.688C176.061 154.178 176.136 154.529 176.285 154.743C176.435 154.957 176.662 155.064 176.966 155.064ZM182.53 155.517C182.216 155.897 181.783 156.088 181.229 156.088C180.719 156.088 180.33 155.941 180.06 155.648C179.793 155.355 179.657 154.926 179.651 154.361V151.245H180.921V154.317C180.921 154.812 181.147 155.06 181.598 155.06C182.029 155.06 182.325 154.91 182.486 154.611V151.245H183.76V156H182.565L182.53 155.517ZM187.39 152.436C187.217 152.413 187.065 152.401 186.933 152.401C186.453 152.401 186.138 152.563 185.988 152.889V156H184.718V151.245H185.918L185.953 151.812C186.208 151.375 186.561 151.157 187.012 151.157C187.153 151.157 187.285 151.176 187.408 151.214L187.39 152.436ZM190.106 156.088C189.409 156.088 188.84 155.874 188.401 155.446C187.964 155.019 187.746 154.449 187.746 153.737V153.614C187.746 153.136 187.838 152.71 188.023 152.335C188.208 151.957 188.468 151.667 188.805 151.465C189.145 151.26 189.532 151.157 189.965 151.157C190.616 151.157 191.127 151.362 191.499 151.772C191.874 152.183 192.062 152.764 192.062 153.517V154.036H189.034C189.075 154.346 189.198 154.595 189.403 154.783C189.611 154.97 189.873 155.064 190.189 155.064C190.679 155.064 191.061 154.887 191.336 154.532L191.96 155.231C191.77 155.5 191.512 155.711 191.187 155.864C190.862 156.013 190.501 156.088 190.106 156.088ZM189.961 152.186C189.709 152.186 189.504 152.271 189.346 152.44C189.19 152.61 189.091 152.854 189.047 153.17H190.813V153.069C190.808 152.788 190.731 152.571 190.585 152.418C190.438 152.263 190.23 152.186 189.961 152.186ZM196.069 157.187H195.3V149.602H196.069V157.187ZM200.785 151.764C201.122 151.359 201.545 151.157 202.055 151.157C203.086 151.157 203.609 151.756 203.624 152.955V156H202.354V152.99C202.354 152.717 202.295 152.517 202.178 152.388C202.061 152.256 201.866 152.19 201.593 152.19C201.221 152.19 200.952 152.333 200.785 152.621V156H199.515V149.25H200.785V151.764ZM206.102 150.076V151.245H206.915V152.177H206.102V154.55C206.102 154.726 206.136 154.852 206.203 154.928C206.271 155.004 206.399 155.042 206.59 155.042C206.73 155.042 206.855 155.032 206.963 155.011V155.974C206.714 156.05 206.458 156.088 206.194 156.088C205.304 156.088 204.85 155.638 204.832 154.739V152.177H204.138V151.245H204.832V150.076H206.102ZM209.143 150.076V151.245H209.956V152.177H209.143V154.55C209.143 154.726 209.177 154.852 209.244 154.928C209.312 155.004 209.44 155.042 209.631 155.042C209.771 155.042 209.896 155.032 210.004 155.011V155.974C209.755 156.05 209.499 156.088 209.235 156.088C208.345 156.088 207.891 155.638 207.873 154.739V152.177H207.179V151.245H207.873V150.076H209.143ZM214.944 153.667C214.944 154.399 214.777 154.986 214.443 155.429C214.112 155.868 213.664 156.088 213.098 156.088C212.618 156.088 212.229 155.921 211.934 155.587V157.828H210.664V151.245H211.841L211.885 151.711C212.193 151.342 212.594 151.157 213.089 151.157C213.675 151.157 214.131 151.374 214.456 151.808C214.781 152.241 214.944 152.839 214.944 153.601V153.667ZM213.674 153.574C213.674 153.132 213.595 152.791 213.437 152.55C213.281 152.31 213.054 152.19 212.755 152.19C212.357 152.19 212.083 152.342 211.934 152.647V154.594C212.089 154.907 212.366 155.064 212.764 155.064C213.371 155.064 213.674 154.567 213.674 153.574ZM218.31 154.686C218.31 154.531 218.232 154.409 218.077 154.321C217.925 154.23 217.679 154.15 217.339 154.08C216.208 153.842 215.643 153.362 215.643 152.638C215.643 152.216 215.817 151.865 216.166 151.583C216.517 151.299 216.976 151.157 217.541 151.157C218.145 151.157 218.626 151.299 218.987 151.583C219.35 151.868 219.532 152.237 219.532 152.691H218.262C218.262 152.509 218.203 152.36 218.086 152.243C217.969 152.123 217.786 152.062 217.537 152.062C217.323 152.062 217.157 152.111 217.04 152.208C216.923 152.304 216.864 152.427 216.864 152.577C216.864 152.717 216.93 152.832 217.062 152.919C217.197 153.004 217.422 153.079 217.739 153.144C218.055 153.205 218.322 153.275 218.539 153.354C219.209 153.601 219.545 154.027 219.545 154.633C219.545 155.067 219.359 155.418 218.987 155.688C218.615 155.955 218.134 156.088 217.545 156.088C217.147 156.088 216.792 156.018 216.482 155.877C216.174 155.733 215.933 155.539 215.757 155.292C215.581 155.043 215.493 154.775 215.493 154.488H216.697C216.709 154.714 216.792 154.887 216.948 155.007C217.103 155.127 217.311 155.187 217.572 155.187C217.815 155.187 217.998 155.142 218.121 155.051C218.247 154.957 218.31 154.835 218.31 154.686ZM220.428 155.376C220.428 155.174 220.496 155.01 220.63 154.884C220.768 154.758 220.939 154.695 221.145 154.695C221.353 154.695 221.524 154.758 221.659 154.884C221.796 155.01 221.865 155.174 221.865 155.376C221.865 155.575 221.798 155.738 221.663 155.864C221.528 155.987 221.355 156.048 221.145 156.048C220.937 156.048 220.765 155.987 220.63 155.864C220.496 155.738 220.428 155.575 220.428 155.376ZM220.428 151.777C220.428 151.575 220.496 151.411 220.63 151.285C220.768 151.159 220.939 151.096 221.145 151.096C221.353 151.096 221.524 151.159 221.659 151.285C221.796 151.411 221.865 151.575 221.865 151.777C221.865 151.976 221.798 152.139 221.663 152.265C221.528 152.388 221.355 152.449 221.145 152.449C220.937 152.449 220.765 152.388 220.63 152.265C220.496 152.139 220.428 151.976 220.428 151.777ZM223.307 156.549H222.362L224.717 149.602H225.662L223.307 156.549ZM225.583 156.549H224.638L226.994 149.602H227.938L225.583 156.549ZM232.685 154.273L233.309 151.245H234.535L233.322 156H232.258L231.357 153.007L230.457 156H229.397L228.185 151.245H229.411L230.03 154.269L230.9 151.245H231.819L232.685 154.273ZM239.303 154.273L239.927 151.245H241.153L239.94 156H238.876L237.976 153.007L237.075 156H236.016L234.803 151.245H236.029L236.648 154.269L237.519 151.245H238.437L239.303 154.273ZM245.921 154.273L246.545 151.245H247.771L246.558 156H245.495L244.594 153.007L243.693 156H242.634L241.421 151.245H242.647L243.267 154.269L244.137 151.245H245.055L245.921 154.273ZM247.925 155.376C247.925 155.174 247.992 155.01 248.127 154.884C248.265 154.758 248.436 154.695 248.641 154.695C248.849 154.695 249.021 154.758 249.155 154.884C249.293 155.01 249.362 155.174 249.362 155.376C249.362 155.575 249.294 155.738 249.16 155.864C249.025 155.987 248.852 156.048 248.641 156.048C248.433 156.048 248.262 155.987 248.127 155.864C247.992 155.738 247.925 155.575 247.925 155.376ZM250.28 153.587C250.28 152.846 250.446 152.256 250.777 151.816C251.111 151.377 251.566 151.157 252.144 151.157C252.606 151.157 252.989 151.33 253.291 151.676V149.25H254.565V156H253.418L253.356 155.495C253.04 155.89 252.633 156.088 252.135 156.088C251.575 156.088 251.125 155.868 250.786 155.429C250.449 154.986 250.28 154.373 250.28 153.587ZM251.55 153.68C251.55 154.125 251.628 154.466 251.783 154.704C251.938 154.941 252.164 155.06 252.46 155.06C252.853 155.06 253.129 154.894 253.291 154.563V152.687C253.132 152.355 252.858 152.19 252.469 152.19C251.856 152.19 251.55 152.687 251.55 153.68ZM255.352 153.579C255.352 153.107 255.442 152.687 255.624 152.317C255.806 151.948 256.066 151.663 256.406 151.46C256.749 151.258 257.146 151.157 257.597 151.157C258.239 151.157 258.762 151.354 259.166 151.746C259.573 152.139 259.8 152.672 259.847 153.346L259.856 153.671C259.856 154.4 259.652 154.986 259.245 155.429C258.838 155.868 258.292 156.088 257.606 156.088C256.92 156.088 256.373 155.868 255.962 155.429C255.555 154.989 255.352 154.392 255.352 153.636V153.579ZM256.622 153.671C256.622 154.122 256.707 154.468 256.876 154.708C257.046 154.945 257.29 155.064 257.606 155.064C257.914 155.064 258.154 154.947 258.327 154.712C258.5 154.475 258.586 154.097 258.586 153.579C258.586 153.136 258.5 152.793 258.327 152.55C258.154 152.307 257.911 152.186 257.597 152.186C257.287 152.186 257.046 152.307 256.876 152.55C256.707 152.791 256.622 153.164 256.622 153.671ZM261.829 151.245L261.869 151.777C262.206 151.364 262.661 151.157 263.235 151.157C263.848 151.157 264.268 151.399 264.497 151.882C264.831 151.399 265.307 151.157 265.925 151.157C266.44 151.157 266.824 151.308 267.076 151.61C267.328 151.909 267.454 152.36 267.454 152.963V156H266.18V152.968C266.18 152.698 266.127 152.502 266.021 152.379C265.916 152.253 265.73 152.19 265.463 152.19C265.083 152.19 264.819 152.372 264.672 152.735L264.677 156H263.407V152.972C263.407 152.697 263.353 152.498 263.244 152.375C263.136 152.251 262.951 152.19 262.69 152.19C262.33 152.19 262.069 152.339 261.908 152.638V156H260.638V151.245H261.829ZM271.189 156C271.131 155.886 271.088 155.744 271.062 155.574C270.754 155.917 270.354 156.088 269.862 156.088C269.396 156.088 269.01 155.953 268.702 155.684C268.397 155.414 268.245 155.074 268.245 154.664C268.245 154.16 268.431 153.773 268.803 153.504C269.178 153.234 269.719 153.098 270.425 153.095H271.009V152.823C271.009 152.603 270.952 152.427 270.838 152.295C270.727 152.164 270.549 152.098 270.306 152.098C270.092 152.098 269.924 152.149 269.801 152.251C269.681 152.354 269.621 152.495 269.621 152.673H268.351C268.351 152.398 268.436 152.143 268.605 151.909C268.775 151.674 269.016 151.491 269.326 151.359C269.637 151.225 269.985 151.157 270.372 151.157C270.958 151.157 271.422 151.305 271.765 151.601C272.111 151.894 272.284 152.307 272.284 152.84V154.901C272.287 155.353 272.35 155.694 272.473 155.925V156H271.189ZM270.139 155.117C270.327 155.117 270.5 155.076 270.658 154.994C270.816 154.909 270.933 154.796 271.009 154.655V153.838H270.535C269.899 153.838 269.561 154.058 269.52 154.497L269.515 154.572C269.515 154.73 269.571 154.86 269.682 154.963C269.793 155.065 269.946 155.117 270.139 155.117ZM274.6 156H273.325V151.245H274.6V156ZM273.25 150.015C273.25 149.824 273.313 149.667 273.439 149.544C273.568 149.421 273.743 149.36 273.962 149.36C274.179 149.36 274.352 149.421 274.481 149.544C274.61 149.667 274.674 149.824 274.674 150.015C274.674 150.208 274.608 150.366 274.477 150.489C274.348 150.612 274.176 150.674 273.962 150.674C273.749 150.674 273.576 150.612 273.444 150.489C273.315 150.366 273.25 150.208 273.25 150.015ZM276.819 151.245L276.858 151.794C277.198 151.37 277.654 151.157 278.225 151.157C278.729 151.157 279.104 151.305 279.35 151.601C279.596 151.897 279.722 152.339 279.728 152.928V156H278.458V152.959C278.458 152.689 278.399 152.495 278.282 152.375C278.165 152.251 277.97 152.19 277.698 152.19C277.34 152.19 277.072 152.342 276.894 152.647V156H275.624V151.245H276.819ZM280.761 155.376C280.761 155.174 280.828 155.01 280.963 154.884C281.101 154.758 281.272 154.695 281.477 154.695C281.685 154.695 281.856 154.758 281.991 154.884C282.129 155.01 282.198 155.174 282.198 155.376C282.198 155.575 282.13 155.738 281.996 155.864C281.861 155.987 281.688 156.048 281.477 156.048C281.269 156.048 281.098 155.987 280.963 155.864C280.828 155.738 280.761 155.575 280.761 155.376ZM285.292 155.064C285.526 155.064 285.716 155 285.863 154.871C286.009 154.742 286.085 154.57 286.091 154.356H287.282C287.279 154.679 287.191 154.975 287.019 155.244C286.846 155.511 286.608 155.719 286.307 155.868C286.008 156.015 285.677 156.088 285.313 156.088C284.634 156.088 284.098 155.873 283.705 155.442C283.312 155.008 283.116 154.411 283.116 153.649V153.565C283.116 152.833 283.311 152.249 283.701 151.812C284.09 151.375 284.625 151.157 285.305 151.157C285.899 151.157 286.375 151.327 286.733 151.667C287.093 152.004 287.276 152.454 287.282 153.016H286.091C286.085 152.77 286.009 152.571 285.863 152.418C285.716 152.263 285.523 152.186 285.283 152.186C284.987 152.186 284.763 152.294 284.61 152.511C284.461 152.725 284.386 153.073 284.386 153.557V153.688C284.386 154.178 284.461 154.529 284.61 154.743C284.76 154.957 284.987 155.064 285.292 155.064ZM287.81 153.579C287.81 153.107 287.9 152.687 288.082 152.317C288.264 151.948 288.524 151.663 288.864 151.46C289.207 151.258 289.604 151.157 290.055 151.157C290.697 151.157 291.22 151.354 291.624 151.746C292.031 152.139 292.258 152.672 292.305 153.346L292.314 153.671C292.314 154.4 292.11 154.986 291.703 155.429C291.296 155.868 290.75 156.088 290.064 156.088C289.378 156.088 288.831 155.868 288.42 155.429C288.013 154.989 287.81 154.392 287.81 153.636V153.579ZM289.08 153.671C289.08 154.122 289.165 154.468 289.334 154.708C289.504 154.945 289.748 155.064 290.064 155.064C290.372 155.064 290.612 154.947 290.785 154.712C290.958 154.475 291.044 154.097 291.044 153.579C291.044 153.136 290.958 152.793 290.785 152.55C290.612 152.307 290.369 152.186 290.055 152.186C289.745 152.186 289.504 152.307 289.334 152.55C289.165 152.791 289.08 153.164 289.08 153.671ZM294.287 151.245L294.327 151.777C294.664 151.364 295.119 151.157 295.693 151.157C296.306 151.157 296.726 151.399 296.955 151.882C297.289 151.399 297.765 151.157 298.383 151.157C298.898 151.157 299.282 151.308 299.534 151.61C299.786 151.909 299.912 152.36 299.912 152.963V156H298.638V152.968C298.638 152.698 298.585 152.502 298.479 152.379C298.374 152.253 298.188 152.19 297.921 152.19C297.541 152.19 297.277 152.372 297.13 152.735L297.135 156H295.865V152.972C295.865 152.697 295.811 152.498 295.702 152.375C295.594 152.251 295.409 152.19 295.148 152.19C294.788 152.19 294.527 152.339 294.366 152.638V156H293.096V151.245H294.287Z" fill="#666666"></path><rect x="103" y="287" width="274" height="10" rx="5" fill="#C4C4C4"></rect><rect x="103" y="312" width="314" height="11" rx="5.5" fill="#C4C4C4"></rect><rect x="230" y="216" width="99" height="52" stroke="#0FA9FF" stroke-width="2"></rect><rect x="228.5" y="214.5" width="4" height="4" fill="white" stroke="#0FA9FF"></rect><rect x="326.5" y="214.5" width="4" height="4" fill="white" stroke="#0FA9FF"></rect><rect x="327.5" y="265.5" width="4" height="4" fill="white" stroke="#0FA9FF"></rect><rect x="228.5" y="265.5" width="4" height="4" fill="white" stroke="#0FA9FF"></rect><rect x="433" y="341" width="133" height="95" fill="white"></rect><path d="M560.305 341H553.259C552.148 341 551.247 341.901 551.247 343.012C551.247 344.124 552.148 345.024 553.259 345.024H560.305C563.633 345.024 566.342 347.733 566.342 351.061V360.317H437.024V351.061C437.024 347.733 439.732 345.024 443.061 345.024H555.086C556.198 345.024 557.098 344.124 557.098 343.012C557.098 341.901 556.198 341 555.086 341H443.061C437.513 341 433 345.513 433 351.061V385.428C433 386.54 433.901 387.441 435.012 387.441C436.123 387.441 437.024 386.54 437.024 385.428V364.341H566.342V429.928C566.342 431.039 567.242 431.94 568.354 431.94C569.465 431.94 570.366 431.039 570.366 429.928V351.061C570.366 345.513 565.853 341 560.305 341Z" fill="#7B7A7A"></path><path d="M568.354 422.693C567.242 422.693 566.342 423.594 566.342 424.706V429.939C566.342 433.267 563.633 435.976 560.305 435.976H443.061C439.732 435.976 437.024 433.267 437.024 429.939V381.879C437.024 380.767 436.123 379.867 435.012 379.867C433.901 379.867 433 380.767 433 381.879V429.939C433 435.487 437.513 440 443.061 440H560.305C565.853 440 570.366 435.487 570.366 429.939V424.706C570.366 423.594 569.465 422.693 568.354 422.693Z" fill="#7B7A7A"></path><path d="M462.105 384.72C461.319 383.934 460.045 383.934 459.26 384.72L447.168 396.812C446.79 397.189 446.578 397.701 446.578 398.235C446.578 398.769 446.79 399.28 447.168 399.658L459.1 411.59C459.492 411.983 460.008 412.179 460.522 412.179C461.037 412.179 461.552 411.983 461.945 411.59C462.731 410.804 462.731 409.53 461.945 408.744L451.436 398.235L462.105 387.566C462.891 386.78 462.891 385.506 462.105 384.72Z" fill="#7B7A7A"></path><path d="M489.166 411.59C489.558 411.983 490.073 412.179 490.588 412.179C491.103 412.179 491.618 411.983 492.011 411.59L503.943 399.658C504.321 399.281 504.533 398.769 504.533 398.235C504.533 397.701 504.321 397.19 503.943 396.812L491.851 384.72C491.065 383.934 489.791 383.934 489.006 384.72C488.22 385.506 488.22 386.78 489.006 387.566L499.675 398.235L489.166 408.744C488.38 409.53 488.38 410.804 489.166 411.59Z" fill="#7B7A7A"></path><path d="M468.412 419.002C469.224 419.002 469.989 418.507 470.294 417.703L484.592 380.035C484.986 378.996 484.464 377.834 483.425 377.44C482.386 377.045 481.224 377.568 480.83 378.607L466.531 416.275C466.137 417.314 466.66 418.476 467.698 418.87C467.934 418.96 468.175 419.002 468.412 419.002Z" fill="#7B7A7A"></path><path d="M441.855 352.77C441.855 356.099 444.563 358.807 447.892 358.807C451.221 358.807 453.928 356.099 453.928 352.77C453.928 349.442 451.221 346.734 447.892 346.734C444.563 346.734 441.855 349.442 441.855 352.77ZM449.904 352.77C449.904 353.88 449.001 354.783 447.892 354.783C446.782 354.783 445.88 353.88 445.88 352.77C445.88 351.661 446.782 350.758 447.892 350.758C449.001 350.758 449.904 351.661 449.904 352.77Z" fill="#7B7A7A"></path><path d="M457.459 352.77C457.459 356.099 460.167 358.807 463.496 358.807C466.825 358.807 469.532 356.099 469.532 352.77C469.532 349.442 466.825 346.734 463.496 346.734C460.167 346.734 457.459 349.442 457.459 352.77ZM465.508 352.77C465.508 353.88 464.605 354.783 463.496 354.783C462.386 354.783 461.484 353.88 461.484 352.77C461.484 351.661 462.386 350.758 463.496 350.758C464.605 350.758 465.508 351.661 465.508 352.77Z" fill="#7B7A7A"></path><path d="M473.063 352.77C473.063 356.099 475.771 358.807 479.099 358.807C482.428 358.807 485.136 356.099 485.136 352.77C485.136 349.442 482.428 346.734 479.099 346.734C475.771 346.734 473.063 349.442 473.063 352.77ZM481.112 352.77C481.112 353.88 480.209 354.783 479.099 354.783C477.99 354.783 477.087 353.88 477.087 352.77C477.087 351.661 477.99 350.758 479.099 350.758C480.209 350.758 481.112 351.661 481.112 352.77Z" fill="#7B7A7A"></path><path d="M539.716 383.646H519.237C518.295 383.646 517.531 384.41 517.531 385.353C517.531 386.295 518.295 387.059 519.237 387.059H539.716C540.659 387.059 541.423 386.295 541.423 385.353C541.423 384.41 540.659 383.646 539.716 383.646Z" fill="#7B7A7A"></path><path d="M539.716 414.108H519.237C518.295 414.108 517.531 414.872 517.531 415.814C517.531 416.757 518.295 417.521 519.237 417.521H539.716C540.659 417.521 541.423 416.757 541.423 415.814C541.423 414.872 540.659 414.108 539.716 414.108Z" fill="#7B7A7A"></path><path d="M547.331 391.262H519.237C518.295 391.262 517.531 392.026 517.531 392.968C517.531 393.911 518.295 394.675 519.237 394.675H547.331C548.274 394.675 549.038 393.911 549.038 392.968C549.038 392.026 548.274 391.262 547.331 391.262Z" fill="#7B7A7A"></path><path d="M547.331 406.492H519.237C518.295 406.492 517.531 407.256 517.531 408.199C517.531 409.141 518.295 409.905 519.237 409.905H547.331C548.274 409.905 549.038 409.141 549.038 408.199C549.038 407.256 548.274 406.492 547.331 406.492Z" fill="#7B7A7A"></path><path d="M554.947 398.877H519.237C518.295 398.877 517.531 399.641 517.531 400.584C517.531 401.526 518.295 402.29 519.237 402.29H554.947C555.889 402.29 556.653 401.526 556.653 400.584C556.653 399.641 555.889 398.877 554.947 398.877Z" fill="#7B7A7A"></path></g><defs><clipPath id="clip0"><rect width="600" height="600" fill="white"></rect></clipPath><clipPath id="clip1"><rect width="10" height="10" fill="white" transform="translate(148 148)"></rect></clipPath></defs></svg>