<svg xmlns="http://www.w3.org/2000/svg" width="600" height="600" viewBox="0 0 600 600" fill="none"><g clip-path="url(#clip0)"><rect width="600" height="600" fill="white"></rect><path d="M579 406.5C579 453.115 538.984 491 489.5 491C440.016 491 400 453.115 400 406.5C400 359.885 440.016 322 489.5 322C538.984 322 579 359.885 579 406.5Z" stroke="#48B703" stroke-opacity="0.47" stroke-width="2"></path><path d="M458.776 238.615C458.776 239.762 459.705 240.693 460.854 240.693H512.807C513.956 240.693 514.885 239.762 514.885 238.615V230.302H539.822C540.971 230.302 541.901 229.372 541.901 228.224V203.286H554.369C554.996 203.286 555.591 203.003 555.985 202.515C556.381 202.027 556.533 201.387 556.401 200.773L550.213 171.892C550.15 156.033 543.341 140.883 531.512 130.294C519.463 119.509 503.896 114.562 487.689 116.362C461.663 119.253 440.884 140.279 438.283 166.357C436.925 179.957 440.491 193.521 448.326 204.549C455.163 214.17 458.776 225.95 458.776 238.615ZM442.419 166.77C444.827 142.631 464.058 123.169 488.147 120.492C503.175 118.83 517.584 123.405 528.74 133.391C539.745 143.242 546.057 157.356 546.057 172.115C546.057 172.261 546.073 172.407 546.104 172.55L551.798 199.13H539.822C538.674 199.13 537.744 200.061 537.744 201.208V226.146H512.807H504.494V230.302H510.729V236.536H462.901C462.524 223.793 458.676 211.94 451.715 202.142C444.462 191.933 441.16 179.371 442.419 166.77Z" fill="#C4C4C4"></path><path d="M506.213 175.697L504.669 172.007C505.002 171.323 505.296 170.612 505.547 169.879L509.255 168.358C509.947 168.074 510.432 167.439 510.528 166.697C510.666 165.613 510.729 164.694 510.729 163.802C510.729 162.91 510.666 161.991 510.528 160.907C510.432 160.165 509.947 159.53 509.255 159.246L505.547 157.725C505.296 156.993 505.004 156.282 504.671 155.597L506.213 151.906C506.501 151.215 506.396 150.424 505.937 149.832C504.75 148.298 503.372 146.919 501.84 145.733C501.247 145.272 500.452 145.171 499.766 145.458L496.074 147.001C495.388 146.669 494.678 146.375 493.947 146.125L492.425 142.417C492.141 141.724 491.508 141.238 490.765 141.143C488.598 140.869 487.141 140.869 484.973 141.143C484.23 141.238 483.597 141.724 483.313 142.417L481.791 146.125C481.06 146.375 480.35 146.669 479.664 147.001L475.973 145.458C475.285 145.171 474.489 145.272 473.899 145.733C472.366 146.92 470.988 148.298 469.801 149.83C469.343 150.422 469.237 151.214 469.525 151.905L471.07 155.596C470.737 156.281 470.442 156.992 470.191 157.725L466.483 159.246C465.791 159.53 465.306 160.165 465.211 160.907C465.073 161.991 465.01 162.91 465.01 163.802C465.01 164.694 465.073 165.613 465.211 166.697C465.306 167.439 465.791 168.074 466.483 168.358L470.191 169.879C470.443 170.611 470.735 171.322 471.068 172.007L469.525 175.697C469.237 176.388 469.343 177.18 469.801 177.771C470.988 179.306 472.366 180.685 473.899 181.871C474.489 182.331 475.285 182.432 475.973 182.146L479.664 180.603C480.35 180.935 481.06 181.229 481.791 181.479L483.313 185.187C483.597 185.88 484.23 186.366 484.973 186.46C486.057 186.597 486.976 186.661 487.869 186.661C488.762 186.661 489.681 186.597 490.765 186.46C491.508 186.366 492.141 185.88 492.425 185.187L493.947 181.479C494.68 181.229 495.39 180.935 496.074 180.602L499.766 182.146C500.452 182.432 501.247 182.331 501.84 181.871C503.372 180.685 504.75 179.306 505.937 177.771C506.396 177.18 506.501 176.387 506.213 175.697ZM503.065 166.404C502.475 166.646 502.028 167.146 501.856 167.76C501.539 168.872 501.105 169.927 500.563 170.892C500.251 171.45 500.212 172.122 500.458 172.711L501.894 176.144C501.369 176.741 500.807 177.303 500.212 177.827L496.778 176.391C496.188 176.146 495.518 176.183 494.96 176.497C493.994 177.039 492.941 177.473 491.829 177.789C491.214 177.962 490.714 178.409 490.473 178.999L489.052 182.459C488.22 182.52 487.518 182.52 486.686 182.459L485.265 178.999C485.024 178.409 484.525 177.962 483.91 177.789C482.802 177.474 481.748 177.039 480.776 176.496C480.216 176.185 479.551 176.146 478.96 176.391L475.526 177.827C474.932 177.303 474.37 176.74 473.844 176.144L475.279 172.711C475.524 172.122 475.486 171.452 475.175 170.895C474.631 169.926 474.197 168.871 473.882 167.76C473.71 167.146 473.263 166.646 472.673 166.404L469.213 164.984C469.18 164.568 469.166 164.179 469.166 163.802C469.166 163.424 469.18 163.036 469.213 162.62L472.673 161.2C473.263 160.958 473.71 160.457 473.882 159.844C474.199 158.731 474.633 157.677 475.175 156.712C475.488 156.154 475.526 155.483 475.281 154.893L473.844 151.459C474.369 150.863 474.932 150.301 475.526 149.777L478.96 151.212C479.551 151.458 480.216 151.418 480.776 151.108C481.748 150.565 482.802 150.13 483.91 149.815C484.525 149.642 485.024 149.195 485.265 148.605L486.686 145.144C487.518 145.084 488.22 145.084 489.052 145.144L490.473 148.605C490.714 149.195 491.214 149.642 491.828 149.815C492.937 150.13 493.99 150.565 494.962 151.108C495.518 151.418 496.188 151.458 496.778 151.212L500.212 149.777C500.807 150.301 501.369 150.864 501.894 151.46L500.46 154.893C500.214 155.482 500.253 156.152 500.563 156.709C501.107 157.678 501.541 158.732 501.856 159.844C502.028 160.457 502.475 160.958 503.065 161.2L506.525 162.62C506.558 163.036 506.572 163.424 506.572 163.802C506.572 164.179 506.558 164.568 506.526 164.984L503.065 166.404Z" fill="#C4C4C4"></path><path d="M487.869 153.412C482.14 153.412 477.479 158.073 477.479 163.802C477.479 169.531 482.14 174.193 487.869 174.193C493.598 174.193 498.26 169.531 498.26 163.802C498.26 158.073 493.598 153.412 487.869 153.412ZM487.869 170.037C484.431 170.037 481.635 167.24 481.635 163.802C481.635 160.364 484.431 157.568 487.869 157.568C491.307 157.568 494.104 160.364 494.104 163.802C494.104 167.24 491.307 170.037 487.869 170.037Z" fill="#C4C4C4"></path><path d="M505.115 187.238L507.583 190.583C509.961 188.829 512.098 186.765 513.937 184.447L510.682 181.863C509.071 183.895 507.197 185.703 505.115 187.238Z" fill="#C4C4C4"></path><path d="M458.258 178.937L461.956 177.041C461.061 175.292 460.342 173.449 459.821 171.562C459.126 169.049 458.775 166.439 458.775 163.802C458.775 147.76 471.827 134.709 487.869 134.709H503.634L500.947 137.396L503.885 140.334L510.12 134.1C510.931 133.288 510.931 131.973 510.12 131.161L503.885 124.927L500.947 127.865L503.634 130.552H487.869C469.535 130.552 454.619 145.469 454.619 163.802C454.619 166.812 455.021 169.795 455.814 172.668C456.411 174.827 457.233 176.936 458.258 178.937Z" fill="#C4C4C4"></path><path d="M519.925 172.668L515.919 171.562C515.231 174.056 514.208 176.447 512.883 178.672L516.451 180.8C517.969 178.258 519.137 175.521 519.925 172.668Z" fill="#C4C4C4"></path><path d="M463.949 180.365L460.531 182.734C462.216 185.162 464.217 187.359 466.484 189.264L469.158 186.082C467.174 184.414 465.42 182.491 463.949 180.365Z" fill="#C4C4C4"></path><path d="M494.635 192.106L495.597 196.148C498.474 195.464 501.249 194.394 503.848 192.967L501.847 189.324C499.576 190.571 497.149 191.507 494.635 192.106Z" fill="#C4C4C4"></path><path d="M470.057 191.882C472.557 193.472 475.258 194.719 478.085 195.589L479.307 191.615C476.835 190.856 474.475 189.766 472.289 188.375L470.057 191.882Z" fill="#C4C4C4"></path><path d="M491.232 196.885L490.814 192.749C489.848 192.846 488.868 192.896 487.896 192.896C486.283 192.972 484.661 192.765 483.082 192.504L482.404 196.604C484.208 196.902 486.134 197.028 487.898 197.052C489.006 197.052 490.126 196.996 491.232 196.885Z" fill="#C4C4C4"></path><path d="M479.557 226.146H483.713V230.302H479.557V226.146Z" fill="#C4C4C4"></path><path d="M487.869 226.146H492.025V230.302H487.869V226.146Z" fill="#C4C4C4"></path><path d="M496.182 226.146H500.338V230.302H496.182V226.146Z" fill="#C4C4C4"></path><ellipse cx="475.5" cy="398.5" rx="90.5" ry="85.5" fill="#0C660C" fill-opacity="0.47"></ellipse><path d="M199 193.5C199 240.125 159.421 278 110.5 278C61.5792 278 22 240.125 22 193.5C22 146.875 61.5792 109 110.5 109C159.421 109 199 146.875 199 193.5Z" stroke="#48B703" stroke-opacity="0.47" stroke-width="2"></path><ellipse cx="121.5" cy="202.5" rx="89.5" ry="85.5" fill="#48B703" fill-opacity="0.47"></ellipse><rect x="132" y="186" width="360" height="235" rx="20" fill="#7B7A7A"></rect><rect x="159.5" y="197.25" width="306.25" height="211.25" fill="white"></rect><circle cx="478.25" cy="303.5" r="6.25" fill="white"></circle><path d="M370.583 300.736C370.159 298.523 368.223 296.923 365.97 296.922H361.433L361.099 294.922C360.766 292.914 359.184 291.344 357.173 291.028C356.726 290.958 356.275 290.911 355.831 290.85C356.6 287.257 355.961 283.506 354.045 280.372C355.057 277.746 354.868 274.808 353.528 272.333C352.187 269.858 349.83 268.095 347.077 267.508C345.318 258.09 337.124 251.244 327.543 251.186C327.308 251.186 327.099 251.217 326.875 251.224C325.345 248.819 322.821 247.224 319.992 246.872C317.163 246.52 314.325 247.449 312.252 249.405C309.64 247.707 306.593 246.802 303.478 246.799C298.459 246.819 293.728 249.149 290.652 253.115C287.237 252.119 283.554 252.731 280.643 254.777C277.733 256.824 275.911 260.082 275.693 263.633C272.105 265.142 269.771 268.653 269.769 272.544C269.776 273.219 269.855 273.891 270.004 274.549C266.831 279.331 266.002 285.296 267.75 290.763C267.12 290.85 266.477 290.927 265.87 291.017C263.849 291.322 262.252 292.892 261.913 294.908L261.579 296.915H257.03C254.781 296.916 252.848 298.511 252.42 300.719L242.129 353.549C241.728 355.618 242.272 357.759 243.615 359.383C244.957 361.008 246.956 361.947 249.064 361.943H298.068C300.014 365.153 305.926 366.643 311.5 366.643C317.015 366.643 322.871 365.188 324.873 361.943H373.937C376.044 361.947 378.042 361.009 379.385 359.384C380.727 357.76 381.272 355.62 380.871 353.552L370.583 300.736ZM276.875 276.798C274.967 275.65 274.056 273.373 274.647 271.227C275.238 269.08 277.186 267.59 279.413 267.581C280.971 267.577 282.437 268.317 283.358 269.574C283.858 270.248 284.68 270.604 285.514 270.508C286.348 270.412 287.068 269.878 287.401 269.107C287.735 268.337 287.632 267.447 287.132 266.773C285.536 264.64 283.118 263.276 280.468 263.013C281.168 259.722 284.07 257.366 287.435 257.357C287.722 257.371 288.007 257.403 288.29 257.451C288.101 257.933 287.937 258.424 287.797 258.922C287.505 260.166 288.26 261.415 289.497 261.735C290.734 262.055 292 261.327 292.346 260.097C292.614 259.064 293.024 258.074 293.566 257.155C295.65 253.663 299.411 251.517 303.478 251.499C305.691 251.508 307.854 252.162 309.703 253.379C309.35 254.368 309.164 255.409 309.15 256.459C309.15 257.757 310.202 258.809 311.5 258.809C312.798 258.809 313.85 257.757 313.85 256.459C313.85 253.729 316.063 251.516 318.793 251.516C321.523 251.516 323.736 253.729 323.736 256.459C323.736 257.757 324.788 258.809 326.086 258.809C327.384 258.809 328.436 257.757 328.436 256.459C328.436 256.278 328.391 256.107 328.382 255.926C335.11 256.341 340.768 261.124 342.298 267.689C341.202 268.009 340.172 268.522 339.257 269.205C338.585 269.709 338.234 270.533 338.334 271.366C338.434 272.2 338.972 272.916 339.744 273.246C340.516 273.576 341.405 273.469 342.077 272.965C343.955 271.575 346.549 271.685 348.301 273.231C350.053 274.776 350.487 277.336 349.343 279.373C348.831 280.272 348.054 280.991 347.117 281.431C346.135 281.907 345.61 282.996 345.848 284.061C346.087 285.125 347.027 285.886 348.118 285.896C348.463 285.897 348.803 285.821 349.115 285.673C349.738 285.371 350.326 285.003 350.87 284.576C352.085 288.029 351.323 291.87 348.882 294.598L348.826 294.657C345.764 297.973 340.881 298.869 336.841 296.856C336.446 296.647 336.066 296.41 335.704 296.146C337.435 293.72 337.674 290.532 336.324 287.875C335.947 287.125 335.197 286.633 334.359 286.585C333.52 286.537 332.72 286.94 332.259 287.643C331.798 288.345 331.747 289.24 332.125 289.99C332.898 291.543 332.416 293.428 330.992 294.419C330.157 294.976 329.124 295.152 328.151 294.904C327.178 294.655 326.356 294.006 325.889 293.117C325.513 292.366 324.765 291.873 323.927 291.823C323.089 291.773 322.287 292.174 321.825 292.874C321.362 293.575 321.309 294.47 321.685 295.221C323.063 298.003 325.902 299.759 329.007 299.751C330.018 299.744 331.018 299.547 331.956 299.171C332.795 299.906 333.72 300.537 334.71 301.051C338.059 302.787 341.954 303.147 345.564 302.054C343.242 305.225 339.766 307.356 335.887 307.987C334.68 308.184 333.826 309.273 333.922 310.492C334.019 311.711 335.034 312.652 336.256 312.657C336.381 312.657 336.506 312.647 336.63 312.629C338.061 312.381 339.459 311.972 340.799 311.411C341.522 312.691 342.11 314.043 342.552 315.446C342.632 315.691 342.674 315.947 342.674 316.205C342.673 317.221 342.067 318.138 341.132 318.536C340.051 318.954 338.824 318.624 338.099 317.721C336.279 315.584 333.896 314 331.22 313.15C326.142 311.449 324.183 309.928 323.351 308.274C324.57 308.122 325.775 307.871 326.953 307.522C327.756 307.275 328.366 306.619 328.553 305.801C328.741 304.982 328.477 304.126 327.862 303.554C327.247 302.983 326.374 302.782 325.571 303.029C324.253 303.434 322.892 303.684 321.515 303.774C318.864 303.981 316.2 303.579 313.728 302.599C312.8 302.237 311.744 302.5 311.094 303.255C307.672 307.185 301.817 307.853 297.598 304.794C293.38 301.736 292.194 295.963 294.865 291.489C295.298 290.767 295.313 289.868 294.903 289.132C294.494 288.396 293.723 287.934 292.881 287.921C292.039 287.907 291.254 288.344 290.821 289.066C290.261 290.02 289.81 291.035 289.477 292.091C287.627 291.993 286.168 290.48 286.138 288.627V288.568C286.137 287.948 285.888 287.354 285.446 286.919C285.005 286.483 284.408 286.242 283.788 286.249C282.485 286.262 281.436 287.323 281.438 288.627C281.449 292.794 284.591 296.287 288.735 296.736C288.743 297.524 288.815 298.31 288.948 299.086C283.702 300.221 278.26 298.335 274.841 294.197C271.422 290.058 270.596 284.358 272.701 279.42C273.227 279.952 273.814 280.42 274.45 280.813C275.56 281.464 276.986 281.1 277.65 279.998C278.314 278.896 277.968 277.466 276.875 276.788V276.798ZM266.535 295.674C267.619 295.514 268.737 295.373 269.849 295.228C274.193 302.171 282.503 305.542 290.457 303.589C292.594 307.645 296.5 310.474 301.02 311.24C305.54 312.006 310.16 310.622 313.514 307.496C315.111 307.973 316.756 308.271 318.418 308.385C319.553 312.69 322.834 315.298 329.726 317.608C331.584 318.19 333.241 319.282 334.51 320.759C335.921 322.437 337.996 323.411 340.188 323.426C341.146 323.426 342.095 323.232 342.977 322.858C345.641 321.719 347.369 319.102 347.369 316.205C347.371 315.45 347.25 314.699 347.012 313.982C346.483 312.322 345.787 310.719 344.934 309.2C348.93 306.327 351.714 302.07 352.743 297.258C353.243 296.663 353.696 296.03 354.097 295.364C354.884 295.465 355.671 295.554 356.463 295.686L364.946 346.711C348.364 341.174 330.432 341.174 313.85 346.711V317.295C313.85 315.998 312.798 314.945 311.5 314.945C310.202 314.945 309.15 315.998 309.15 317.295V346.721C292.57 341.178 274.639 341.172 258.055 346.702L266.535 295.674ZM247.233 356.379C246.789 355.842 246.608 355.135 246.74 354.452L257.03 301.622H260.79L253.416 345.938C253.157 347.551 253.75 349.183 254.986 350.253C256.221 351.322 257.922 351.676 259.481 351.188C272.008 347.129 285.354 346.282 298.294 348.725L297.594 357.243H249.064C248.355 357.244 247.683 356.926 247.233 356.379ZM311.5 361.943C305.839 361.943 302.592 360.27 302.115 359.525L302.923 349.773C305.507 350.416 308.036 351.264 310.485 352.309C310.802 352.461 311.149 352.541 311.5 352.544C311.853 352.543 312.201 352.463 312.518 352.309C314.966 351.258 317.494 350.405 320.077 349.757L320.886 359.523C320.409 360.27 317.161 361.943 311.5 361.943ZM375.767 356.379C375.317 356.926 374.645 357.244 373.937 357.243H325.414L324.709 348.709C337.656 346.271 351.008 347.125 363.538 351.192C365.097 351.674 366.794 351.315 368.025 350.244C369.255 349.173 369.844 347.541 369.582 345.931L362.215 301.624H365.975L376.268 354.449C376.398 355.135 376.214 355.843 375.767 356.379Z" fill="#0C660C"></path><path d="M303.713 281.307C302.751 282.177 302.676 283.663 303.546 284.625C305.539 286.826 308.174 288.345 311.077 288.968C309.762 290.821 307.63 291.92 305.358 291.917C304.06 291.917 303.008 292.969 303.008 294.267C303.008 295.564 304.06 296.617 305.358 296.617C310.222 296.636 314.587 293.631 316.306 289.08C322.149 288.112 326.775 283.615 327.907 277.801C328.082 276.97 327.794 276.108 327.155 275.549C326.516 274.989 325.624 274.818 324.823 275.102C324.022 275.386 323.437 276.08 323.292 276.917C322.831 279.341 321.433 281.485 319.401 282.884C315.491 285.517 310.248 284.919 307.031 281.474C306.16 280.512 304.675 280.437 303.713 281.307Z" fill="#0C660C"></path><path d="M295.522 278.757C296.82 278.757 297.872 277.705 297.872 276.408C297.872 274.787 298.515 273.233 299.661 272.087C300.807 270.942 302.361 270.298 303.981 270.298C305.279 270.298 306.331 269.246 306.331 267.948C306.331 266.65 305.279 265.598 303.981 265.598C298.014 265.605 293.178 270.44 293.172 276.408C293.172 277.031 293.419 277.629 293.86 278.069C294.301 278.51 294.899 278.757 295.522 278.757Z" fill="#0C660C"></path><path d="M313.85 232.7V230.35C313.85 229.052 312.798 228 311.5 228C310.202 228 309.15 229.052 309.15 230.35V232.7C309.15 233.998 310.202 235.05 311.5 235.05C312.798 235.05 313.85 233.998 313.85 232.7Z" fill="#0C660C"></path><path d="M350.063 244.863L347.714 247.213C347.103 247.803 346.858 248.676 347.073 249.498C347.288 250.319 347.929 250.961 348.751 251.176C349.573 251.391 350.446 251.146 351.036 250.535L353.386 248.185C353.997 247.595 354.242 246.722 354.027 245.9C353.812 245.079 353.17 244.437 352.349 244.222C351.527 244.007 350.653 244.252 350.063 244.863Z" fill="#0C660C"></path><path d="M273.625 251.224C274.575 251.224 275.432 250.651 275.796 249.773C276.159 248.895 275.958 247.885 275.287 247.213L272.937 244.863C272.347 244.252 271.473 244.007 270.651 244.222C269.83 244.437 269.188 245.079 268.973 245.9C268.758 246.722 269.003 247.595 269.614 248.185L271.964 250.535C272.404 250.976 273.002 251.224 273.625 251.224Z" fill="#0C660C"></path><path d="M291.716 241.336C292.025 241.335 292.331 241.274 292.616 241.157C293.192 240.918 293.65 240.461 293.888 239.885C294.127 239.309 294.127 238.662 293.888 238.086L291.188 231.572C290.878 230.778 290.164 230.214 289.321 230.098C288.477 229.981 287.637 230.33 287.123 231.009C286.61 231.688 286.505 232.592 286.848 233.372L289.545 239.886C289.909 240.764 290.766 241.336 291.716 241.336Z" fill="#0C660C"></path><path d="M334.883 230.3C333.684 229.805 332.311 230.374 331.814 231.572L329.114 238.086C328.874 238.662 328.874 239.309 329.112 239.886C329.35 240.463 329.808 240.921 330.385 241.159C330.671 241.277 330.976 241.337 331.285 241.338C332.235 241.338 333.092 240.766 333.456 239.888L336.154 233.374C336.394 232.798 336.394 232.15 336.156 231.574C335.917 230.997 335.459 230.539 334.883 230.3Z" fill="#0C660C"></path><path d="M359.262 269.315C359.571 269.315 359.876 269.253 360.162 269.134L366.673 266.437C367.449 266.116 367.994 265.405 368.104 264.573C368.214 263.74 367.871 262.913 367.205 262.401C366.539 261.89 365.651 261.773 364.875 262.094L358.362 264.792C357.322 265.219 356.73 266.322 356.95 267.424C357.169 268.526 358.138 269.319 359.262 269.315Z" fill="#0C660C"></path><path d="M262.84 269.135C264.039 269.632 265.414 269.063 265.912 267.864C266.409 266.664 265.839 265.289 264.64 264.792L258.126 262.095C256.927 261.598 255.553 262.168 255.056 263.367C254.56 264.566 255.13 265.941 256.329 266.437L262.84 269.135Z" fill="#0C660C"></path></g><defs><clipPath id="clip0"><rect width="600" height="600" fill="white"></rect></clipPath></defs></svg>