<svg xmlns="http://www.w3.org/2000/svg" viewBox="0 0 34 32"><g id="Layer_2" data-name="Layer 2"><g id="Layer_1-2" data-name="Layer 1" style="fill: #48B703;"><path d="M18,0h4V3H18ZM0,3H4V0H0ZM12,3h4V0H12ZM6,3h4V0H6ZM24,3h4V0H24Zm6-3V3h4V0ZM12,10h4V7H12Zm6,0h4V7H18ZM6,10h4V7H6Zm24,0h4V7H30Zm-6,0h4V7H24ZM0,10H4V7H0Zm24,8h4V15H24ZM6,18h4V15H6Zm24,0h4V15H30ZM12,18h4V15H12Zm6,0h4V15H18ZM0,18H4V15H0ZM0,32H4V29H0Zm6,0h4V29H6Zm18,0h4V29H24ZM12,32h4V29H12Zm18,0h4V29H30ZM18,32h4V29H18Zm-6-7h4V22H12ZM0,25H4V22H0Zm30,0h4V22H30Zm-6,0h4V22H24Zm-6,0h4V22H18ZM6,25h4V22H6Z"></path></g></g></svg>